<svg width="719" height="560" fill="none" xmlns="http://www.w3.org/2000/svg"><g fill="#64FCD9"><path d="M253.2 498.617c167.374 26.666 253.743-26.712 254.183-28.299 4.685-2.547 9.414-5.063 13.85-7.953 7.058-4.599 13.934-9.439 20.794-14.289 3.382-2.391 6.686-4.904 9.776-7.605 2.22-1.942 3.859-4.445 6.053-6.418 5.037-4.527 10.453-8.705 15.357-13.348a1041.492 1041.492 0 0 0 25.957-25.423c6.855-6.96 13.459-14.139 19.984-21.367 4.536-5.024 8.754-10.291 13.103-15.459 3.619-4.301 7.547-8.421 10.747-12.975 3.782-5.384 7.091-11.071 10.309-16.769 3.313-5.866 6.553-11.794 9.307-17.894 3.296-7.302 7.709-14.247 8.062-22.547.286-6.736 1.547-13.433 1.969-20.168.497-7.919-.525-15.778-2.054-23.573-1.32-6.73-3.21-13.347-6.795-19.337a232.928 232.928 0 0 0-12.28-18.462c-5.277-7.165-11.579-13.488-19.258-18.647-7.169-4.815-14.979-8.43-23.124-11.472-7.616-2.846-15.367-5.377-23.014-8.156-4.387-1.596-8.652-3.472-13.022-5.109-7.084-2.654-14.282-5.06-21.299-7.854-10.94-4.357-20.629-10.361-28.614-18.697-5.199-5.429-10.848-10.494-16.358-15.664-5.422-5.088-10.974-10.059-16.365-15.174-2.263-2.148-4.07-4.717-6.417-6.772-3.47-3.04-7.192-5.84-10.889-8.65-3.654-2.78-7.101-5.957-11.183-8.058-9.027-4.647-17.986-9.468-28.06-12.19-8.749-2.362-17.269-5.229-26.379-6.62-9.41-1.438-18.752-2.767-28.293-2.757-12.235.013-24.471-.028-36.705.026-3.009.013-6.056.074-9.017.51a808.292 808.292 0 0 0-23.866 3.883c-6.33 1.123-12.621 2.442-18.913 3.742l-.221.046c-4.588.948-9.18 1.897-13.713 3.038-7.895 1.99-15.761 4.09-23.612 6.224-10.725 2.915-20.248 8.621-31.125 11.29-5.791 1.421-11.368 3.669-16.925 5.8-9.538 3.657-19.015 7.456-28.458 11.315-4.393 1.796-8.512 4.221-12.997 5.753-9.04 3.09-17.476 7.216-25.463 12.089-6.55 3.996-12.669 8.588-19.159 12.674-9.069 5.709-17.688 11.872-24.56 19.849-4.922 5.712-10.095 11.315-14.283 17.472-5.918 8.7-11.339 17.72-16.401 26.874-4.732 8.556-8.818 17.424-12.998 26.231-2.739 5.776-5.468 11.588-7.603 17.567-2.486 6.963-4.114 14.183-6.5 21.179-1.907 5.595-2.61 11.261-2.54 17.057.017 1.559.461 3.115.482 4.674.211 15.213.327 30.427.592 45.638.048 2.715.572 5.434 1.034 8.128a553.759 553.759 0 0 0 2.633 14.109c.777 3.916 1.312 7.913 2.56 11.704 3.587 10.891 8.199 21.425 14.335 31.326a603.37 603.37 0 0 0 12.533 19.34c1.34 1.985 3.263 3.631 4.886 5.457 3.285 3.698 5.838 6.89 9.863 11.08 47.56 49.508 114.9 54.838 170.094 63.631Z"/><path d="M18.575 360.038c-3.408-7.406-6.081-14.751-7.458-22.522-1.094-6.173-2.888-12.239-4.108-18.397-.656-3.309-.643-6.726-1.136-10.069-.847-5.748-1.853-11.476-2.795-17.213-.465-2.829-1.075-5.643-1.38-8.486C.591 273.014-.283 262.663.086 252.259c.194-5.487-.03-11.014.628-16.453.832-6.885 2.429-13.689 3.58-20.545.811-4.835 1.244-9.73 2.174-14.544 1.576-8.153 4.275-15.996 8.83-23.187 2.003-3.161 4.275-6.176 6.45-9.241 1.47-2.071 6.077-3.882 8.06-3.491 2.724.536 3.708 2.388 3.464 4.434-.471 3.958-1.181 7.937-2.317 11.775-2.35 7.936-5.339 15.714-7.495 23.689-1.573 5.816-2.266 11.837-3.293 17.774a1907.974 1907.974 0 0 0-3.684 21.996c-.313 1.947-.445 3.924-.535 5.892-.22 4.807-.345 9.619-.55 14.428-.136 3.186-.616 6.379-.466 9.549.362 7.689.936 15.372 1.554 23.047.403 5.009.924 10.015 1.595 14.999.535 3.975 1.38 7.917 2.077 11.875.71 4.038 1.247 8.109 2.162 12.106.829 3.623 1.95 7.199 3.143 10.74 3.103 9.21 6.247 18.41 9.508 27.574 2.44 6.861 5.107 13.652 7.634 20.486 1.113 3.009.416 4.765-2.092 4.776-2 .009-3.615-1.166-4.5-2.921-.752-1.498-1.38-3.05-2.128-4.55-3.507-7.031-7.109-14.023-10.527-21.091-1.756-3.631-3.199-7.392-4.783-11.338ZM630.355 107.634c-7.103 1.627-13.899 3.44-20.798 4.815-4.912.977-10.053 2.227-14.929 1.794-6.04-.537-12.447 1.157-18.136-1.769-3.743-1.927-7.403-4.047-10.858-6.386-6.452-4.37-10.697-10.406-14.183-16.939-3.754-7.034-6.121-14.493-7.675-22.168-.591-2.912-1.191-5.927-.991-8.848.302-4.386 1.236-8.742 2.025-13.093.98-5.4 3.047-10.478 5.512-15.443 3.389-6.824 9.463-11.317 15.812-15.503 7.433-4.901 15.553-8.741 24.292-11.131 5.16-1.412 10.634-1.919 16.003-2.595 10.378-1.305 20.432 1.108 30.283 3.351 14.114 3.214 22.203 12.774 26.274 25.137 2.23 6.77 3.342 13.86 4.846 20.829.831 3.852 1.785 7.727 2.024 11.627.195 3.168-.338 6.435-.999 9.577-1.293 6.148-4.127 11.758-7.856 16.975-3.044 4.255-7.402 7.3-11.576 10.492-5.576 4.264-12.158 6.839-19.07 9.278ZM656.274 154.589c-1.686-2.046-3.529-3.836-4.686-5.947-.655-1.192-.64-3.067-.123-4.36.915-2.293 3.528-2.16 5.425-1.652 1.982.531 3.925 1.711 5.47 3.024 8.226 6.988 15.468 14.836 21.603 23.423 5.191 7.264 9.248 15.168 10.691 23.912.943 5.71 1.771 11.467 2.088 17.229.592 10.741 1.051 21.503 1.041 32.257-.008 9.131-1.676 18.086-5.715 26.546-1.331 2.788-5.795 6.384-9.529 6.184-2.936-.157-5.797-2.128-5.72-4.818.111-3.913.614-7.829 1.194-11.714.671-4.498 1.673-8.955 2.405-13.448.628-3.846 1.445-7.712 1.522-11.581.129-6.428.146-12.904-.565-19.286-.671-6.001-2.177-11.942-3.621-17.845-1.709-6.992-3.493-14.029-7.391-20.319-4.492-7.245-9.29-14.329-14.089-21.605ZM66.804 128.74c-2.157 2.26-4.272 4.331-6.188 6.548-4.74 5.482-9.377 11.042-14.087 16.548-1.375 1.61-3.268 2.624-5.364 1.655-2.08-.964-1.793-3.087-1.68-4.907.264-4.207 2.585-7.714 5.115-10.944 5.309-6.777 10.896-13.394 17.51-19.155 6.915-6.02 14.187-11.633 22.144-16.503 4.284-2.62 8.403-5.403 13.578-6.238 1.143-.185 3.183-.103 3.433.418.495 1.033.528 2.79-.144 3.653-1.462 1.877-3.401 3.47-5.299 5.019-3.313 2.704-6.818 5.21-10.106 7.937-6.31 5.231-12.526 10.559-18.912 15.969Z"/></g><g fill="#000"><path d="M627.178 451.886c-2.282 6.764-4.948 13.308-6.465 20.073-2.327 10.368-7.218 19.962-9.895 30.195-.229.874-.645 1.743-.645 2.612 0 .351.863.946 1.382.996.882.085 1.802-.25 2.709-.275 6.708-.183 13.417-.415 20.128-.443 1.94-.009 3.905.517 5.808.975.377.092.833 1.059.725 1.515-.626 2.632-1.392 5.235-2.159 7.838-.123.417-.434 1.065-.748 1.114-3.339.516-2.907 3.218-3.344 5.17-1.225 5.508-2.119 11.077-3.203 16.611a419.203 419.203 0 0 1-2.619 12.486c-.528 2.314-2.676 2.836-4.75 2.852-10.518.084-21.041.166-31.555-.044-2.904-.058-4.526-1.619-4.923-3.939-1.106-6.455-2.391-12.884-3.615-19.321-.684-3.589-1.356-7.181-2.102-10.758-.275-1.31-.96-2.309-2.731-2.033-2.762.433-4.188-.674-4.718-3.223-.425-2.038-1.379-3.977-1.893-6.005-.563-2.217.452-3.281 2.902-3.286 4.782-.011 9.565-.065 14.344.015 4.189.071 8.38.247 12.562.494 1.383.082 1.685-.408 1.453-1.472-.209-.957-.287-1.996-.76-2.835-3.171-5.618-6.313-11.255-9.723-16.748-1.396-2.246-3.315-4.253-5.208-6.194a684.557 684.557 0 0 0-13.644-13.566c-1.701-1.649-3.665-3.066-5.473-4.623-1.405-1.209-2.883-.777-4.266-.128-8.039 3.783-15.905 2.846-23.252-1.307-2.636-1.491-4.734-4.128-6.44-6.615-2.582-3.765-4.383-7.982-6.928-11.771-2.476-3.685-5.033-7.475-8.321-10.511-7.647-7.059-17.068-11.658-27.454-14.228-4.625-1.145-9.493-.179-14.163 1.001-4.278 1.08-8.574.915-12.992.413-8.315-.944-15.487-4.368-22.346-8.342-5.132-2.973-7.996-7.389-8.721-13.284-.565-4.591.515-8.493 3.382-11.842 2.834-3.311 6.146-6.345 10.873-7.583 4.028-1.055 7.971-2.379 11.967-3.542.704-.204 1.479-.267 2.222-.271 5.477-.021 10.977-.31 16.426.055 9.164.614 18.376 1.228 26.649 5.673 2.553 1.371 5.442 2.201 8.115 3.398.596.266.929 1.03 1.384 1.565-.733.011-1.551.225-2.185-.001-4.121-1.469-8.376-2.731-12.251-4.641-4.773-2.353-9.932-2.611-15.027-3.098-5.108-.489-10.281-.388-15.425-.555-7.995-.26-15.52 1.383-22.804 4.404-5.14 2.131-8.569 5.517-10.155 10.431-1.784 5.52.475 12.643 5.997 16.555 5.556 3.935 11.992 6.005 18.381 7.888 5.596 1.649 11.706 1.897 17.568.209 7.211-2.076 14.005-.715 20.818 1.686 7.235 2.551 14.026 5.836 19.682 10.677 3.215 2.751 5.929 6.126 8.309 9.552 3.891 5.601 7.325 11.472 10.951 17.231 2.759 4.382 7.577 5.418 12.359 6.667 4.297 1.122 8.116-.271 11.946-1.55 1.143-.382 2.365-1.378 2.879-2.384 1.124-2.206 2.319-4.552 2.583-6.926a38.484 38.484 0 0 0-1.195-14.67c-.991-3.533-1.817-7.191-3.487-10.458-3.534-6.912-7.597-13.541-14.48-18.304-2.549-1.765-4.594-4.147-6.868-6.247-3.688-3.407-7.412-6.781-11.028-10.251-.548-.527-.598-1.498-.878-2.263.779.261 1.592.459 2.321.808.442.213.747.663 1.12.999 5.768 5.166 11.179 10.738 17.399 15.388 6.964 5.207 11.024 12.156 14.947 19.136 2.149 3.824 2.824 8.421 3.746 12.746.709 3.333 1.114 6.794 1.009 10.181-.089 2.832-1.033 5.655-1.751 8.449-.38 1.485-.346 2.625.958 3.804a1029.941 1029.941 0 0 1 17.122 15.805c1.874 1.772 3.38 3.873 5.205 5.694 4.297 4.286 6.909 9.458 9.352 14.735.158.341.27.738.538.988.371.349.867.584 1.31.867.079-.452.303-.93.215-1.352-1.927-9.138-3.763-18.296-7.263-27.08-1.168-2.93-2.083-5.944-3.193-8.895-.489-1.3-1.612-2.204-3.084-1.623-2.855 1.128-5.346.065-7.849-.818-4.989-1.764-8.038-5.253-9.606-9.865-.234-.69.199-1.573.323-2.368.494.569 1.136 1.074 1.457 1.717 2.826 5.645 7.435 9.855 14.954 9.38 1.414-.09 2.08-.461 1.586-1.875-2.665-7.638-5.185-15.323-9.224-22.482a5000.88 5000.88 0 0 1-9.894-17.651c-.22-.392-.555-.857-.488-1.236.155-.862.526-1.691.81-2.535.586.658 1.333 1.241 1.733 1.983 3.437 6.389 6.474 12.985 10.303 19.164 3.42 5.519 5.248 11.498 7.444 17.396.526 1.41.825 2.893 1.34 4.308.143.391.689.659 1.049.983.295-.279.649-.524.874-.845 3.483-4.943 4.048-10.243 3.11-16.042-1.16-7.162-4.238-13.58-7.334-20.1-2.912-6.136-6.3-11.992-10.551-17.383-2.642-3.35-5.178-7.028-9.801-8.401-5.713-1.696-11.148-1.122-15.877 2.507-3.812 2.923-2.919 4.951-.234 8.077.912 1.062 2.096 1.922 3.097 2.924.304.306.408.781.604 1.179-.532.095-1.277.446-1.564.244-2.935-2.068-6.767-3.726-7.347-7.405-.597-3.785 2.106-6.642 5.511-8.253 4.562-2.158 9.392-3.042 14.741-1.866 6.532 1.436 10.082 5.993 13.405 10.403 6.936 9.205 11.561 19.532 15.949 29.998 2.396 5.714 2.774 11.373 2.248 17.114-.263 2.869-1.98 5.922-3.925 8.267-1.543 1.861-1.727 3.23-1.036 5.218 2.293 6.594 4.536 13.205 6.666 19.845.468 1.458.333 3.075.603 4.6.079.444.601.821.92 1.23.203-.423.571-.842.58-1.267.055-2.568-.107-5.145.063-7.704.194-2.927.579-5.849 1.076-8.745.099-.583 1.066-1.038 1.633-1.552.477.759 1.389 1.539 1.349 2.273-.132 2.366-.7 4.708-.941 7.073a107.2 107.2 0 0 0-.523 7.986c-.089 3.237.041 6.48-.044 9.715-.055 2.104-.332 4.203-.495 6.304-.055.71-.089 1.423-.082 2.134.004.535.089 1.071.139 1.605.501-.481 1.297-.892 1.451-1.454.563-2.053.701-4.216 1.384-6.226 1.588-4.679 3.402-9.291 5.12-13.933.624-1.689 1.445-3.347 1.785-5.084.343-1.749.315-3.4-1.425-4.965-2.503-2.25-4.633-4.894-6.646-7.549-.788-1.036-.977-2.535-1.185-3.858-1.617-10.342-1.005-20.757-1.017-31.147-.001-1.954.73-3.9.954-5.866.09-.801.042-1.895-.467-2.431-4.453-4.686-6.858-10.298-9.021-16.08-2.125-5.68-4.854-11.183-6.701-16.932-2.079-6.472-3.553-13.115-5.132-19.718-1.183-4.951-2.124-9.951-3.142-14.935-.111-.543.007-1.122-.018-1.683-.343-7.494-.472-15.003-1.095-22.476-.815-9.781.401-19.297 3.634-28.585 1.919-5.509 3.756-11.111 6.462-16.302 2.619-5.022 6.266-9.755 12.408-11.621 2.452-.744 5.356-.526 8.014-.313 4.722.377 9.163 1.613 12.169 5.371 2.679 3.353 4.641 6.921 5.49 11.171.78 3.906 2.963 7.558 3.966 11.447 1.351 5.233 2.188 10.581 3.2 15.887 1.073 5.616 1.963 11.266 3.171 16.857 1.419 6.573 3.137 13.091 4.619 19.653.238 1.056.392 1.447 1.283.525 1.97-2.04 4.449-2.899 7.315-3.522 2.521-.549 4.706-2.326 7.213-3.041 3.421-.974 6.997-1.499 10.525-2.128 1.554-.279 3.153-.36 4.736-.499 5.745-.5 10.694 1.352 15.23 4.417 3.868 2.614 7.912 5.035 11.573 7.878 5.898 4.579 8.959 10.92 12.175 17.225 2.042 4.006 3.315 8.113 3.424 12.381.1 3.965-2.506 7.325-4.463 10.768-1.481 2.606-3.255 4.811-6.262 6.124-4.212 1.838-9.373 1.057-12.722-1.773-3.808-3.219-6.623-7.101-8.988-11.265-1.335-2.349-2.714-4.548-5.328-5.894-.395-.204-.487-.909-.719-1.382.506-.143 1.036-.461 1.511-.4 3.036.391 4.329 2.724 5.759 4.752 2.214 3.139 3.863 6.664 6.37 9.572 4.347 5.041 9.369 7.1 15.306 2.739 2.356-1.73 3.549-4.96 4.924-7.657 3.776-7.413.739-14.003-3.25-20.407-1.74-2.793-3.343-5.688-5.387-8.283-3.847-4.882-9.022-8.353-14.47-11.691-5.936-3.637-12.196-4.7-19.002-4.201-5.499.404-10.849 1.354-15.539 4.308-.591.373-1.264.727-1.952.865-7 1.403-10.594 6.711-14.937 11.125-2.373 2.41-4.73 4.872-6.737 7.54-3.303 4.393-6.902 8.721-9.323 13.528-4.374 8.686-8.411 17.586-10.495 27.033-1.256 5.696-1.768 11.529-2.699 17.29-.387 2.391-1.044 4.744-1.476 7.131-.169.934-.121 1.916-.054 2.868.122 1.731.437 3.454.483 5.183.083 3.077-.382 6.214.124 9.22.664 3.936.157 8.212 2.665 11.704 1.366 1.902 3.397 3.417 5.238 4.999 1.026.881 1.579.96 1.993-.769 1.262-5.256 2.929-10.428 4.402-15.641 2.518-8.913 4.93-17.852 7.564-26.737.694-2.338 2.017-4.52 3.079-6.762 5.67-11.96 11.274-23.948 17.058-35.862 2.368-4.88 5.142-9.593 7.701-14.396.673-1.263 1.064-2.686 1.916-3.823.407-.543 1.591-.588 2.423-.859.055.661.392 1.455.116 1.964-2.381 4.394-5.1 8.642-7.282 13.115-3.991 8.181-7.634 16.507-11.523 24.731-1.834 3.877-3.826 7.695-5.878 11.478-3.9 7.193-6.668 14.698-8.25 22.629-.833 4.18-2.346 8.242-3.519 12.366-.135.469-.05.99-.197 1.608Zm-41.081-105.13c1.043 7.225 1.609 14.545 3.256 21.651a191.345 191.345 0 0 0 7.292 24.157c3.133 8.32 7.17 16.349 10.836 24.496.187.417.6.747.906 1.117.222-.477.528-.937.65-1.434 1.213-4.997 2.046-10.099 3.677-14.975 1.895-5.657 4.58-11.084 6.746-16.669 3.032-7.817 8.254-14.378 13.859-20.68 2.671-3.003 5.895-5.592 8.93-8.309 1.164-1.041 1.728-2.019.852-3.49-.415-.699-.467-1.585-.664-2.39-1.394-5.726-2.857-11.441-4.149-17.186-.835-3.72-1.457-7.482-2.1-11.236-.582-3.401-.805-6.873-1.642-10.217-2.102-8.398-4.387-16.759-6.747-25.099-1.22-4.315-3.419-8.351-7.621-10.669-2.4-1.323-5.594-1.442-8.449-2.025-1.294-.265-2.765-.75-3.93-.431-6.718 1.84-10.983 6.443-13.767 11.987-2.423 4.827-4.055 10.015-5.755 15.124-2.002 6.012-3.395 12.139-3.254 18.511.139 6.257-.074 12.521.078 18.776.07 2.842.648 5.674.996 8.991Zm43.036 180.877c-7.47 0-14.941.026-22.411-.04-.792-.006-1.578-.55-2.367-.845.819-.347 1.635-.987 2.459-.996 7.034-.081 14.071-.048 21.108-.044.599 0 1.44-.193 1.758.093 2.394 2.147 2.032-.78 2.219-1.24.621-1.538.648-3.272 1.184-4.849.731-2.146.216-2.778-2.344-2.736-8.973.151-17.953.008-26.93.081-4.446.036-8.889.317-13.335.451-1.823.055-3.657-.08-5.467.063-.538.043-1.496.808-1.444 1.128.578 3.52 1.294 7.022 2.018 10.52 1.199 5.795 2.305 11.61 3.72 17.359.438 1.783-.139 4.63 3.312 4.644 10.598.038 21.195.043 31.793-.047.798-.007 2.078-.728 2.291-1.361.751-2.22 1.179-4.539 1.644-6.837.968-4.769 1.887-9.549 2.81-14.327.092-.48.069-.98.099-1.471-.531.151-1.063.302-2.117.454Zm-25.038-12.525c10.076 0 20.154-.058 30.231.049 2.066.022 2.623-.908 2.891-2.415.187-1.054.138-2.193.567-3.153 1.004-2.25-.413-2.24-2.103-2.194-6.53.176-13.06.391-19.591.457-2.619.027-5.242-.418-7.863-.416-2.709.002-5.422.485-8.122.409-7.765-.214-15.527-.561-23.284-.955-1.976-.1-2.208.606-1.686 2.077.553 1.555 1.203 3.101 1.529 4.7.302 1.482 1.13 2.016 2.626 1.92 2.361-.151 4.72-.429 7.082-.457 5.733-.067 11.467-.022 17.723-.022Z"/><path d="M642.305 462.964c2.913-2.99 6.052-5.632 8.397-8.78 4.017-5.387 5.784-11.748 7.873-17.917 1.473-4.35 2.808-8.749 3.922-13.188 1.457-5.811 2.384-11.742 4.012-17.508 1.358-4.805 3.339-9.465 5.17-14.149.706-1.807 1.65-3.56 2.729-5.203.304-.464 1.464-.45 2.231-.655-.095.549-.049 1.164-.309 1.635-3.809 6.908-6.042 14.279-7.843 21.813-2.656 11.115-5.16 22.251-9.259 33.052-2.849 7.507-6.633 14.141-12.605 20.06-6.087 6.032-13.651 9.081-21.569 11.896-.516.184-1.274-.21-1.92-.335.412-.484.715-1.176 1.255-1.415 3.403-1.512 6.958-2.754 10.263-4.422 2.654-1.341 5.026-3.159 7.653-4.884ZM554.407 441.289c-5.963-6.47-11.593-12.989-17.689-19.115-5.124-5.148-11.715-8.635-18.223-12.135-3.157-1.698-6.259-3.484-9.353-5.278-.574-.332-1.075-.839-1.457-1.362-.248-.338-.221-.85-.317-1.284.47-.023 1.037-.215 1.395-.04a92.93 92.93 0 0 1 5.044 2.696c4.773 2.725 9.581 5.403 14.27 8.247 2.694 1.634 5.391 3.354 7.731 5.385 9.37 8.136 17.752 17.075 24.691 27.105 1.646 2.381 3.045 4.918 4.391 7.458.349.659.07 1.601.079 2.412-.715-.5-1.657-.867-2.109-1.522-2.835-4.113-5.56-8.291-8.453-12.567ZM703.86 385.654c-.56-.707-.901-2.254-1.571-.235-.825 2.491-1.614 4.993-2.5 7.465-.178.497-.72.883-1.095 1.319-.321-.486-1.022-1.078-.903-1.442 1.002-3.053 2.17-6.06 3.246-9.095.211-.596.539-1.379.298-1.855-2.708-5.383-5.43-10.761-8.328-16.059-2.131-3.897-5.736-6.577-9.441-9.166-.972-.679-2.254-2.642-2.096-2.782 1.707-1.532 2.612.436 3.617 1.111 6.615 4.441 11.085 10.423 14.246 17.329.563 1.231 1.386 2.158 3.332 2.325 2.669.23 4.926 1.717 6.11 4.118.24.484-.052 1.191-.098 1.796-.43-.242-.898-.44-1.282-.733-1.236-.941-2.397-1.975-3.684-2.851-.435-.296-1.162-.228-1.754-.326.087.596.041 1.242.284 1.777 2.048 4.509 4.177 8.986 6.196 13.507.231.517-.071 1.238-.126 1.865-.642-.308-1.673-.481-1.865-.947-.94-2.291-1.658-4.66-2.586-7.121ZM497.807 402.755c-1.008.274-2.064.795-2.737.52-5.593-2.287-11.491-3.021-17.516-3.299a900.606 900.606 0 0 1-17.776-.991c-.863-.058-1.687-.612-2.528-.937.863-.478 1.717-1.354 2.593-1.372 8.273-.177 16.502.253 24.633 1.846 3.052.597 6.216.776 9.207 1.548 1.556.402 2.845 1.682 4.124 2.685Z"/><path d="M629.785 465.855c-.303.121-.481.097-.648.126-.727.124-1.451.264-2.176.398.311-.716.403-1.684.97-2.108 3.411-2.552 6.829-5.114 10.447-7.404 2.783-1.761 5.821-3.195 8.832-4.621.775-.368 1.873-.156 2.821-.21-.571.669-1.004 1.536-1.737 1.972-3.54 2.108-7.245 3.986-10.726 6.169-2.678 1.68-5.111 3.693-7.783 5.678ZM649.87 439.118a1653.89 1653.89 0 0 1-16.839 8.782c-.476.246-1.076.289-1.618.426.023-.597-.219-1.457.115-1.746 1.322-1.141 2.688-2.36 4.285-3.084 5.768-2.612 11.618-5.076 17.495-7.476.7-.285 1.755.172 2.645.285-.573.557-1.04 1.351-1.742 1.622-1.332.515-2.799.73-4.341 1.191ZM507.328 415.395c-1.838-1.401-.826-2.013.646-1.879 3.706.336 7.474.608 11.052 1.481 3.701.904 7.235 2.423 10.775 3.82.75.295 1.207 1.224 1.8 1.862-.829.048-1.734.322-2.472.106-4.982-1.457-9.895-3.124-14.904-4.496-2.12-.581-4.418-.612-6.897-.894ZM657.172 419.371a1738.877 1738.877 0 0 1-18.829 10.124c-.534.283-1.273.237-1.916.344.078-.548.027-1.151.268-1.628.246-.482.698-.977 1.199-1.233a1750.277 1750.277 0 0 1 17.428-8.759c.553-.274 1.256-.354 1.898-.389.454-.025.923.177 1.386.278-.435.381-.869.762-1.434 1.263ZM614.136 428.517c-.559-.516-1.268-.867-1.352-1.318-.127-.689.178-1.445.298-2.174.519.355 1.149.628 1.539 1.079 3.216 3.72 6.372 7.484 9.577 11.213 1.383 1.608 1.761 3.439 1.521 5.409-.041.336-.406.639-.62.957-.305-.197-.83-.352-.887-.599-1.258-5.407-5.847-8.849-9.025-13.118-.323-.432-.614-.885-1.051-1.449ZM593.4 430.33c0 3.595.044 6.949-.04 10.301-.015.587-.565 1.162-.868 1.742-.393-.498-1.085-.973-1.128-1.496a148.888 148.888 0 0 1-.512-9.37c-.027-1.291.32-2.586.453-3.883.065-.629-.182-1.366.094-1.88.421-.786 1.172-1.42 1.782-2.119.248.784.701 1.569.696 2.351-.011 1.372-.302 2.743-.477 4.354ZM639.175 390.958c.652 3.373 1.18 6.623 1.687 9.877.061.393.168.893-.027 1.182-.331.492-.887.854-1.347 1.271-.235-.551-.562-1.087-.689-1.66-.726-3.259-1.245-6.567-2.175-9.774-.424-1.467-1.638-2.733-2.476-4.1-.27-.439-.484-.906-.724-1.36.768-.022 1.923-.349 2.235-.012 1.268 1.375 2.28 2.953 3.516 4.576ZM618.309 454.537c.621 1.215 1.311 2.277 1.537 3.419.162.81-.303 1.726-.488 2.596-.491-.531-1.148-.993-1.447-1.603a544.173 544.173 0 0 1-6.214-13.029c-.25-.546.029-1.299.062-1.955.663.358 1.641.567 1.931 1.098 1.34 2.446 2.495 4.979 3.701 7.487.293.61.527 1.243.918 1.987ZM628.742 427.803c-.739-1.651-1.427-3.402-1.939-5.197-.941-3.312-2.658-6.169-5.334-8.56-.394-.352-.388-1.086-.566-1.644.715.091 1.641-.054 2.114.306 4.321 3.286 5.902 7.898 6.833 12.739.129.671-.629 1.487-1.108 2.356ZM542.409 405.889c.67.537 1.64 1.176 1.677 1.859.216 3.909.307 7.832.175 11.744-.02.583-1.437 1.127-2.207 1.69-.099-.782-.277-1.562-.284-2.345-.027-3.146-.043-6.293.028-9.438.026-1.132.313-2.26.611-3.51ZM544.366 437.557c2.409.203 4.593.362 6.099 2.058.289.325.287.871.419 1.315-.481.037-.98.167-1.44.094-3.075-.489-6.128-1.12-9.217-1.491-1.188-.143-2.455.378-3.687.381-.521.002-1.043-.552-1.564-.853.391-.341.72-.82 1.185-1 2.574-.997 5.206-1.553 8.205-.504ZM556.884 427.437a134.08 134.08 0 0 1-2.626 6.665c-.157.368-.555.648-.843.971-.234-.311-.669-.621-.669-.93.003-1.271-.189-2.66.289-3.791 1.251-2.968 2.069-5.942 1.798-9.15-.04-.473.387-.981.597-1.472.485.492 1.345.957 1.388 1.481.165 1.985.066 3.989.066 6.226ZM652.217 405.647a209.205 209.205 0 0 1-5.729 3.341c-.305.17-.728.159-1.097.231.014-.388-.146-.944.072-1.135 1.335-1.18 2.619-2.488 4.18-3.353 2.214-1.225 4.421-2.805 7.279-2.3.609.107 1.126.659 1.684 1.006-.528.295-1.021.694-1.592.866-1.537.459-3.11.822-4.797 1.344ZM576.708 439.485c2.822 1.24 5.409 2.438 7.927 3.75.713.372 1.272 1.045 1.788 1.662.145.173-.037.686-.228.942-.079.105-.604.009-.877-.102-2.707-1.108-5.426-2.196-8.089-3.39-.733-.329-1.493-.892-1.871-1.535-.463-.789-.541-1.774 1.35-1.327ZM585.576 418.287c.174 2.324.373 4.407.5 6.492.024.397-.238.81-.368 1.215-.516-.195-1.302-.262-1.494-.611-.467-.842-.928-1.821-.903-2.734.061-2.313.319-4.63.671-6.923.072-.469.894-.84 1.372-1.257.247.542.675 1.077.697 1.628.026.643-.301 1.298-.475 2.19ZM690.036 371.207c.313-.611.413-1.148.704-1.575.243-.359.708-.589 1.076-.876.232.391.678.787.665 1.17a304.138 304.138 0 0 1-.52 9.872c-.022.315-.48.605-.736.907-.266-.288-.722-.554-.767-.868a73.701 73.701 0 0 1-.538-5.154c-.077-1.114-.015-2.237.116-3.476ZM577.229 424.552c.26 1.208.193 1.824-1.115 1.14-1.183-.618-2.438-1.144-3.526-1.88-.471-.319-.605-1.064-.892-1.617.694-.178 1.613-.703 2.039-.467 1.268.701 2.343 1.7 3.494 2.824ZM619.482 362.414c1.107 2.867 2.212 5.495 3.322 8.12.029.068.18.124.172.17-.196 1.088-.405 2.174-.613 3.261-.786-.643-2.137-1.206-2.257-1.94-.427-2.625-2.521-3.759-4.415-5.272-1.614-1.291-2.823-3.04-4.063-4.681-.304-.403-.025-1.18-.015-1.785.544.153 1.282.152 1.592.487.903.978 1.592 2.119 2.458 3.129.273.319.836.425 1.266.628.004-.444.129-.923-.006-1.328-1.208-3.627-2.701-7.189-3.642-10.874-1.277-5.007-2.389-10.074-3.133-15.169-1.218-8.353-2.547-16.722-2.098-25.196.045-.859.692-1.692 1.06-2.536.328.801.853 1.582.952 2.407.752 6.31 1.707 12.615 2.043 18.946.378 7.156 1.82 14.104 3.765 20.981.996 3.521 2.396 6.944 3.612 10.652ZM624.7 351.814c.695-2.135 1.388-4.028 2.088-5.921.208-.559.281-1.257.692-1.634.551-.504 1.371-.755 2.075-1.116-.012.685.111 1.399-.058 2.049-1.57 6.032-3.164 12.06-4.833 18.068-.199.715-.888 1.313-1.35 1.965-.408-.724-1.271-1.524-1.147-2.159.715-3.692 1.664-7.346 2.533-11.252ZM607.093 341.095c.987 1.392 1.915 2.63 2.656 3.957.232.415-.044 1.072-.086 1.618-.541-.122-1.29-.078-1.586-.395-1.072-1.151-2.203-2.324-2.934-3.664-2.125-3.895-4.066-7.878-6.089-11.822-.103-.202-.44-.391-.412-.548.167-.964.409-1.917.626-2.874.489.692 1.052 1.349 1.454 2.081 2.103 3.832 4.164 7.682 6.371 11.647ZM621.048 337.843c-.348 2.432-.619 4.637-1.088 6.807-.146.672-.832 1.245-1.271 1.863-.257-.531-.609-1.042-.755-1.597-.989-3.765.834-7.264 1.295-10.891.206-1.62.717-3.24 1.356-4.763.313-.749 1.235-1.281 1.882-1.91.2.867.707 1.789.544 2.594-.521 2.575-1.29 5.107-1.963 7.897ZM613.875 318.698c.864-1.601 1.498-3.135 2.387-4.532.303-.475 1.249-.602 1.901-.887.061.591.312 1.23.151 1.765a263.877 263.877 0 0 1-3.038 9.404c-.122.359-.689.586-1.051.873-.334-.393-.964-.793-.952-1.176.06-1.779.297-3.552.602-5.447ZM604.485 544.13c6.314-.28 12.498-.441 18.682-.6.434-.011.925-.123 1.291.024.807.323 1.551.782 2.321 1.186-.777.398-1.547 1.129-2.332 1.144-5.471.1-10.946.053-16.419.053-1.13 0-2.268.074-3.385-.029-.614-.058-1.195-.415-1.79-.636.5-.34 1.001-.681 1.632-1.142ZM600.572 533.534c-.276.523-.652 1.236-1.096 1.275-2.933.258-5.881.455-8.825.477-.78.005-1.566-.675-2.35-1.041.659-.276 1.312-.777 1.978-.793 3.386-.082 6.775-.037 10.293.082Z"/></g><path d="m160.891 269.334 45.379 65.304h111.386l5.304-11.428h-36.539l-40.665-53.876h-84.865Z" fill="#fff"/><path d="M323.323 366.866c-11.384 0-22.505.063-33.625-.019-10.313-.076-20.627-.289-30.939-.474-7.496-.134-14.993-.317-22.489-.483-7.144-.158-14.291-.263-21.432-.504-7.339-.249-14.673-.619-22.008-.963-6.456-.303-12.915-.588-19.364-.987-6.74-.417-13.47-.969-20.205-1.444-4.87-.342-9.747-.61-14.611-1.004-1.552-.126-1.823.367-1.806 1.708a894.25 894.25 0 0 1 .027 19.993c-.14 14.346-.382 28.691-.487 43.039-.026 3.426.488 6.856.462 10.281-.049 6.273-.405 12.544-.456 18.817-.027 3.345.488 6.693.461 10.039-.1 12.855-.308 25.71-.502 38.565-.153 10.201-.357 20.402-.518 30.603-.049 3.193-1.997 4.981-5.542 4.993-2.951.01-4.973-2.035-5.035-4.975-.15-7.086-.371-14.17-.508-21.255-.067-3.521-.079-7.047.009-10.568.07-2.753.489-5.505.469-8.255-.029-3.997-.384-7.991-.47-11.99-.088-4.089-.069-8.183-.011-12.274.147-10.092.402-20.183.487-30.276.029-3.454-.432-6.909-.472-10.366-.081-6.882-.024-13.765-.024-20.648 0-4.01-.068-8.022.02-12.03.086-3.917.439-7.83.485-11.746.083-7.017.007-14.035.051-21.052.004-.651.4-1.3.613-1.949.187.078.487.116.541.243.276.656.59 1.319.699 2.006.162 1.018.25 2.06.217 3.086-.14 4.379-.496 8.756-.476 13.133.031 6.381.402 12.761.455 19.143.028 3.292-.464 6.585-.454 9.878.013 3.943.43 7.885.452 11.83.016 2.965-.447 5.935-.452 8.902-.003 2.777.481 5.556.454 8.331-.051 5.164-.435 10.325-.454 15.487-.015 3.996.456 7.992.452 11.989-.005 4.269-.431 8.535-.452 12.804-.016 3.211.466 6.424.452 9.634-.017 4.025-.453 8.049-.452 12.073.001 4.105.45 8.211.452 12.316.001 4.052-.506 8.108-.431 12.157.063 3.364.498 6.743 1.111 10.063.136.739 1.675 1.684 2.623 1.738.808.048 1.93-.905 2.476-1.679.502-.712.574-1.774.575-2.682.028-20.724.022-41.45.022-62.175 0-14.088-.069-28.177.019-42.265.089-14.074.402-28.148.475-42.222.03-5.622-.368-11.243-.463-16.866-.027-1.637.375-3.276.486-4.919.196-2.937-.345-3.392-3.453-3.625-5.771-.432-11.554-.807-17.296-1.481-9.35-1.1-18.847-1.559-27.856-4.402-3.68-1.162-7.278-2.657-10.713-4.347-3.052-1.502-3.712-4.38-3.494-7.343.207-2.81 2.063-4.758 4.806-5.584 6.139-1.849 12.327-3.602 18.591-5.034 2.793-.638 5.837-.264 8.733-.599 4.567-.529 9.095-1.327 13.655-1.9a159.51 159.51 0 0 1 10.124-.971c4.233-.261 8.49-.211 12.715-.543 6.761-.532 13.5-1.284 20.252-1.911 2.298-.213 4.604-.387 6.911-.484 4.765-.2 9.535-.337 14.303-.5 4.768-.162 9.537-.309 14.302-.509.543-.022 1.072-.34 1.607-.522-.238-.507-.402-1.059-.724-1.515-4.784-6.788-9.616-13.548-14.381-20.348-4.262-6.083-8.468-12.199-12.675-18.315-3.009-4.371-6.045-8.728-8.935-13.166-1.291-1.982-.821-2.951 1.584-3.408 1.476-.281 3.055-.125 4.587-.097.566.01 1.127.308 1.693.318 11.368.181 22.738.318 34.106.508 7.322.123 14.693-.12 21.948.609 6.736.677 13.174-.499 19.744-1.01 1.087-.085 2.71.786 3.366 1.671 6.46 8.717 12.725 17.56 19.135 26.309a2012.82 2012.82 0 0 0 18.508 24.856c1.013 1.34 2.31 2.254 4.54 2.257 18.059.026 36.116.256 54.175.406 4.401.036 8.802-.052 13.202.019 7.234.114 14.466.293 21.698.481 4.944.128 9.888.328 14.832.479 5.647.173 11.298.285 16.944.5 7.424.282 14.848.625 22.27.969 6.545.305 13.087.658 19.631.968 3.886.184 7.786.208 11.661.518 6.934.556 13.851 1.299 20.78 1.914 4.249.377 8.523.546 12.76 1.013 6.343.698 12.673 1.517 18.989 2.396 5.278.735 10.582 1.418 15.778 2.515 4.77 1.008 9.57 2.193 14.061 3.944 4.035 1.573 3.633 2.895 2.566 6.064-.505 1.497-1.713 2.858-1.925 4.363-.692 4.905-4.759 5.767-8.819 6.506a813.574 813.574 0 0 1-23.335 3.899c-3.512.534-7.089.745-10.647.999-7.435.528-14.876.983-22.313 1.477-4.785.317-9.563.705-14.351.96-7.069.376-14.141.686-21.214.983-8.303.349-16.608.632-24.91.989-6.721.289-13.439.654-20.159.963-4.062.186-8.126.437-12.192.475-21.935.2-43.872.343-66.072.505Zm214.698-28.287c-1.489-.399-2.955-.907-4.471-1.178-5.308-.953-10.613-1.939-15.956-2.684-3.781-.528-7.633-.62-11.437-1.03-7.036-.76-14.051-1.701-21.095-2.392-4.941-.486-9.918-.647-14.873-1.016-6.035-.449-12.058-1.042-18.096-1.435-8.578-.56-17.165-1.03-25.75-1.471-7.334-.377-14.672-.693-22.01-.976-5.559-.215-11.121-.354-16.682-.493a4128.87 4128.87 0 0 0-21.7-.489c-8.993-.178-17.986-.426-26.981-.47-15.844-.077-31.689-.032-47.534.013-.639.001-1.277.507-1.916.778.61.217 1.217.618 1.827.623 6.866.044 13.732-.002 20.598.067.803.008 1.599.558 2.399.857-.632.203-1.258.428-1.899.606-.628.174-1.273.423-1.912.429-4.841.036-9.683.035-14.524.01-1.459-.007-2.917-.122-4.376-.189.884 1.451 1.759 2.905 2.658 4.348.127.203.341.38.557.514.407.255.849.678 1.267.67 4.858-.114 9.714-.357 14.571-.398.858-.006 1.725.762 2.587 1.174-.86.239-1.719.68-2.582.686-7.248.056-14.497-.026-21.745.046-11.282.111-22.564.376-33.847.456-11.531.082-23.063.018-34.594.018-2.877 0-5.76.094-8.628-.056-.897-.047-1.754-.752-2.629-1.156.868-.409 1.708-.886 2.615-1.198.463-.161 1.044-.028 1.572-.028 24.208 0 48.415.002 72.622-.016.626 0 1.252-.224 1.879-.342-.278-.545-.481-1.137-.846-1.625a5823.19 5823.19 0 0 0-15.53-20.642c-4.201-5.551-8.453-11.069-12.65-16.622-4.955-6.553-9.895-13.116-14.771-19.72-.355-.481-.135-1.322-.182-1.997.575.343 1.334.568 1.699 1.048 4.971 6.54 9.894 13.114 14.819 19.685 7.909 10.548 15.805 21.104 23.72 31.649a496.405 496.405 0 0 0 6.366 8.289c.214.273.726.346 1.099.511.023-.45.246-1.012.036-1.332-1.495-2.283-3.002-4.567-4.648-6.759-8.307-11.055-16.691-22.059-24.979-33.126-5.053-6.747-9.965-13.585-14.988-20.351-.797-1.073-1.865-1.792-3.514-1.595-2.375.283-4.782.513-7.171.486-5.298-.059-10.593-.315-15.89-.45-7.234-.184-14.466-.359-21.701-.486-10.753-.189-21.507-.332-32.262-.495-.177-.002-.353.014-.528-.002-1.226-.11-2.451-.225-3.676-.338.668 1.099 1.286 2.228 2.015 3.292 5.346 7.794 10.664 15.604 16.086 23.353 8.484 12.126 17.051 24.204 25.547 36.323.382.545.539 1.295.566 1.957.016.388-.433.791-.672 1.188-.289-.252-.652-.46-.854-.76-1.256-1.872-2.297-3.899-3.782-5.597-.794-.908-2.366-1.827-3.53-1.771-5.691.276-11.357.971-17.045 1.339-4.67.302-9.36.332-14.038.52-7.602.307-15.205.599-22.801.99-4.35.224-8.694.583-13.03.969-6.844.607-13.685 1.241-20.514 1.961-2.986.313-5.954.813-8.911 1.321-4.73.812-9.463 1.623-14.158 2.585-3.28.672-6.532 1.5-9.725 2.461-.928.28-1.61 1.256-2.406 1.913.74.598 1.397 1.329 2.237 1.761 1.272.657 2.619 1.312 4.023 1.601 3.728.769 7.514 1.297 11.26 2.002 5.835 1.098 11.613 2.532 17.495 3.338 7.866 1.078 15.799 1.791 23.721 2.474 7.25.626 14.525 1.006 21.788 1.492 4.871.327 9.742.665 14.615.973 7.879.5 15.753 1.117 23.64 1.428 8.37.331 16.754.337 25.131.539 3.626.087 7.249.305 10.872.477 6.721.319 13.437.795 20.162.941 12.6.273 25.205.386 37.807.509 6.691.065 13.381.053 20.071.003 18.94-.14 37.883-.239 56.821-.512 9.717-.14 19.426-.648 29.141-.927 3.49-.1 6.987.04 10.48-.028a1460.85 1460.85 0 0 0 18.002-.484c3.802-.12 7.603-.27 11.4-.489 7.882-.455 15.76-.959 23.64-1.456 4.96-.313 9.917-.683 14.879-.964 6.367-.361 12.739-.619 19.103-.999 4.173-.249 8.359-.478 12.498-.997 6.713-.841 13.402-1.851 20.08-2.907 7.3-1.154 14.54-2.427 21.445-5.169 2.52-1 1.396-1.71.328-2.234-2.287-1.124-4.773-1.902-7.705-2.822Zm-369.185 21.947c5.398.325 10.795.687 16.196.966 6.982.363 13.965.695 20.951.976 9.007.361 18.017.657 27.024.985 4.329.157 8.655.371 12.986.476 8.023.198 16.049.494 24.073.469 28.711-.089 57.42-.269 86.129-.474 8.73-.062 17.459-.292 26.187-.478 6.178-.132 12.354-.316 18.53-.482 11.912-.322 23.825-.645 35.738-.976 5.473-.153 10.945-.325 16.417-.486.352-.01.707.025 1.056-.004 7.455-.646 14.906-1.333 22.364-1.935 4.865-.392 9.759-.518 14.609-1.02 8.29-.859 16.531-2.309 24.841-2.778 7.433-.42 14.571-1.87 21.677-3.6 2.154-.524 4.821-.309 6.274-2.446.336-.493.477-1.1.706-1.655-.653-.031-1.382-.254-1.946-.062-9.309 3.158-19.167 3.737-28.832 5.146-6.694.976-13.487 1.376-20.239 2.01-7.1.666-14.195 1.416-21.308 1.922-6.707.476-13.436.702-20.157 1-4.502.199-9.011.288-13.511.506-5.754.279-11.501.704-17.256.949-8.918.383-17.837.819-26.761.958-17.441.273-34.884.359-52.328.518-1.615.016-3.229.014-4.843 0-19.644-.159-39.288-.296-58.931-.498-8.114-.084-16.227-.294-24.339-.479-12.97-.295-25.951.572-38.919-.881-7.358-.825-14.836-.754-22.26-1.061-4.591-.189-9.187-.282-13.776-.505-5.666-.274-11.329-.603-16.989-.972-6.915-.45-13.828-.916-20.732-1.471-4.983-.401-9.953-.936-14.925-1.451-7.647-.794-15.272-2.044-22.941-2.326-9.474-.347-18.239-3.116-27.165-5.468-.303-.08-.812-.222-.903-.111-.205.251-.392.738-.259.96.349.577.76 1.299 1.35 1.543 2.225.918 4.463 1.971 6.82 2.422 6.037 1.153 12.14 2.005 18.215 2.986 5.989.969 11.949 2.133 17.971 2.873 5.908.727 11.877 1.037 17.821 1.51 2.389.191 4.785.305 7.173.498 7.896.638 15.789 1.296 24.212 1.946Z" fill="#00160A"/><path d="M148.515 327.024c0 3.907-6.131 7.618-12.966 7.618-6.835 0-12.965-3.711-12.965-7.618 0-3.908-2.358-14.694 13.555-11.429 14.144-.544 12.376 7.521 12.376 11.429Z" fill="#fff"/><g fill="#000"><path d="M154.435 324.576c-2.888 1.22-3.751 3.389-5.103 5.762-1.97 3.454-5.842 5.857-10.779 5.705-4.674-.142-9.38.353-13.745-1.916-2.361-1.227-4.027-3.221-4.236-5.29-.321-3.177.184-6.525.964-9.667.739-2.977 3.793-4.188 6.685-4.766 5.473-1.094 10.981-.803 16.297.938 1.197.391 2.153 1.373 3.319 1.89.982.436 2.281 1.05 3.138.778 1.905-.606 3.757-1.77 5.373.117 1.364 1.593.55 4.172-1.6 6.158l-.313.291Zm-31.43 3.491c.891 1.205 1.498 2.818 2.723 3.542 5.009 2.963 10.65 2.548 16.039 1.418 4.886-1.025 7.399-6.205 5.33-10.072-.445-.832-1.715-1.626-2.723-1.782-1.337-.206-2.821.483-4.191.346-4.533-.451-9.038-1.145-13.568-1.637-.97-.105-2.747.041-2.878.433-.778 2.341-2.003 4.731-.732 7.752Zm17.475-11.319c-3.927 0-7.855-.016-11.781.028-.336.005-.667.411-.999.631.373.262.734.734 1.122.754 4.198.212 8.4.406 12.603.483 1.333.024 2.674-.313 4.01-.485-1.391-.471-2.781-.942-4.175-1.408-.076-.026-.172-.003-.78-.003Zm13.563 2.89c-1.182.61-2.832.971-3.413 1.901-.566.906-.038 2.395.01 3.628.604-.551 1.209-1.099 1.811-1.651.547-.502 1.275-.927 1.583-1.532.309-.607.197-1.396.009-2.346ZM129.787 342.762c-2.896-.507-5.618-.796-8.128-1.626-1.062-.351-3.423-.725-2.33-2.925.955-1.923 2.979-2.725 4.799-1.846.402.195.647.669.964 1.014-.368.189-.746.361-1.1.57-.512.303-1.006.632-1.508.951.468.194.917.481 1.406.567 4.805.84 9.588 1.321 14.507.486 2.433-.413 5.018-.022 7.53-.102 1.58-.051 3.166-.486 4.726-.397 1.059.06 2.078.73 3.114 1.126-.848.406-1.676 1.12-2.549 1.17-7.052.408-14.113.691-21.431 1.012Z"/></g><path d="M351.316 552.186c-8.158-.649-16.048-1.338-23.945-1.933-3.527-.265-7.069-.372-10.606-.498-5.294-.19-10.593-.299-15.886-.502-7.689-.295-15.371-.789-23.063-.929-8.916-.165-17.839-.094-26.757-.027-15.858.119-31.715.288-47.572.491-4.768.061-9.534.35-14.303.459-3.196.072-6.398.071-9.594 0-5.033-.113-10.064-.351-15.097-.466-8.551-.194-17.103-.39-25.657-.479-7.597-.081-15.245.466-22.781-.168-6.198-.521-12.228-2.558-18.4-3.552-3.379-.545-5.89-2.02-7.739-4.428-2.598-3.383-.372-8.822 4.295-10.946 3.564-1.622 7.116-2.871 11.127-2.893.984-.005 1.965-.43 2.95-.442 4.166-.053 8.336-.092 12.497.051.633.022 1.513.936 1.777 1.607.552 1.398-.675 1.34-1.626 1.233-2.587-.29-5.159-.807-7.752-.911-2.203-.088-4.49.03-6.629.491-3.577.77-7.15 1.686-10.562 2.924-2.448.89-4.09 2.639-4.05 5.441.036 2.517 1.456 4.024 3.75 4.705 5.37 1.597 10.817 2.972 16.236 4.424.244.065.526.004.79.008 9.345.163 18.688.441 28.033.452 7.936.01 15.945-.995 23.793-.301 15.095 1.335 30.175.543 45.257.785 5.32.085 10.65-.31 15.977-.437 2.58-.062 5.165.01 7.747-.014 17.266-.157 34.53-.43 51.795-.431 6.896 0 13.792.567 20.685.931 5.226.277 10.447.634 15.67.968 7.526.481 15.057.915 22.576 1.481 5.071.382 10.142.848 15.184 1.472 5.551.687 11.062 1.636 16.603 2.394 3.008.413 6.041.675 9.065.99 6.309.656 12.605 1.454 18.931 1.898 4.114.288 8.275-.073 12.405.078 11.401.418 22.794 1.164 34.198 1.359 6.71.115 13.438-.549 20.156-.902 5.576-.292 11.169-.477 16.719-1.012 6.522-.628 13.039-1.407 19.496-2.449 5.436-.877 10.932-1.825 16.119-3.494 3.727-1.198 7.462-3.158 10.351-5.62 5.64-4.809 3.733-9.439-1.412-12.666-5.901-3.7-12.424-6.492-19.822-6.976-4.549-.298-9.075-.915-13.599-1.472-.389-.048-1.009-.77-.953-1.093.082-.474.71-1.263 1.053-1.242 4.158.269 8.324.538 12.451 1.064 3.274.418 6.685.759 9.7 1.894 6.067 2.281 12.436 4.238 16.54 9.568 3.578 4.647 1.963 8.53-1.265 11.937-4.711 4.974-11.242 7.229-18.014 8.58-7.081 1.413-14.263 2.434-21.431 3.437-3.867.541-7.793.788-11.703.993-7.595.397-15.196.699-22.797.989-9.269.355-18.617 1.475-27.792.756-9.392-.738-18.744-1.084-28.143-1.302-5.952-.137-11.904-.769-17.822-1.439-5.47-.619-10.883-1.651-16.342-2.373-3.443-.455-6.93-.609-10.382-1.018-3.399-.403-6.778-.957-10.43-1.445Z" fill="#00160A"/><path d="M496.033 530.732c0 1.787.004 3.332-.001 4.876-.008 2.339-2.019 3.964-4.823 3.902-2.427-.053-4.175-1.539-4.13-3.787.097-5.002.451-10 .465-15 .011-4.157-.396-8.316-.469-12.476-.088-5.012-.021-10.026-.021-15.041V491.5c0-5.933.059-11.867-.024-17.799-.045-3.266-.469-6.529-.481-9.794-.053-15.551-.023-31.103-.023-46.654v-51.126c0-.568-.198-1.235.055-1.68.255-.447.961-.675 1.469-.998.197.354.561.708.563 1.063.037 5.31-.04 10.622.047 15.932.063 3.809.425 7.615.484 11.424.087 5.555.07 11.11-.002 16.664-.028 2.156-.445 4.309-.465 6.465-.017 1.638.465 3.278.467 4.919.031 28.363.022 56.728.022 85.093 0 9.78-.002 19.561.005 29.342 0 1.005-.313 2.098 1.47 2.271 1.678.163 2.327-.695 2.721-1.881.173-.519.03-1.129.03-1.698 0-3.169-.019-6.34.003-9.509.171-25.047.366-50.093.5-75.139.013-2.614-.485-5.23-.466-7.843.027-3.673.444-7.344.453-11.015.007-3.264-.487-6.53-.457-9.795.079-8.71.29-17.42.509-26.13.092-3.647.5-7.292.477-10.937-.034-5.623-.332-11.243-.474-16.866-.024-.954-.446-2.428 1.317-2.292 1.325.101 2.298.889 1.347 2.434-.265.43-.019 1.118-.043 1.686-.17 3.834-.47 7.667-.487 11.502-.014 3.048.425 6.097.452 9.146.019 2.154-.413 4.308-.453 6.466-.025 1.311.46 2.627.468 3.942.044 8.858.069 17.718-.002 26.576-.026 3.267-.465 6.53-.465 9.795 0 3.265.484 6.531.461 9.794-.111 15.295-.374 30.588-.468 45.881-.027 4.511.489 9.025.461 13.535-.053 8.739-.316 17.476-.492 26.458ZM281.599 525.363c-6.79.164-13.32.264-19.843.505-6.634.248-13.259.661-19.89.952-8.125.355-16.251.676-24.378.975-5.381.198-10.783.131-16.143.542-8.275.635-16.522 1.583-24.782 2.384-.61.058-1.231.007-1.847.007-8.096 0-16.195.147-24.285-.066-3.664-.097-7.318-.854-10.95-1.453-.588-.097-1.031-.94-1.542-1.438.606-.315 1.251-.949 1.811-.889 2.566.27 5.107.74 7.659 1.126.747.113 1.499.266 2.25.269 5.368.024 10.749.232 16.101-.035 9.662-.481 19.306-1.254 28.958-1.899.437-.029.88.008 1.319-.005 5.383-.16 10.767-.286 16.148-.496 7.336-.287 14.712-.284 21.992-1.043 13.316-1.391 26.652-1.352 40.007-1.408 17.35-.073 34.717-.766 52.043-.25 7.491.223 15.009 1.266 22.582 1.281 8.199.015 16.398.465 24.595.399 6.545-.053 13.081-.663 19.626-.905 10.411-.383 20.832-.572 31.239-1.022 7.533-.327 15.049-.973 22.576-1.42 3.883-.23 7.776-.293 11.66-.509 8.231-.458 16.461-.914 24.683-1.491 2.041-.142 1.875.621 1.192 1.758-.205.342-.787.67-1.212.689-4.765.208-9.532.354-14.299.517-9.533.324-19.149.063-28.573 1.176-6.497.769-12.923 1.221-19.434 1.285-2.481.024-4.955.388-7.437.449-8.285.204-16.575.278-24.859.52-8.392.246-16.781.623-25.17.964-3.184.129-6.367.475-9.548.449-6.175-.049-12.445.285-18.507-.562-17.795-2.49-35.66-.81-53.742-1.356Z" fill="#00160A"/><path d="m298.797 106.617 18.27.544v114.827h-16.502l-1.768-115.371Z" fill="#fff"/><path d="M299.028 205.915c-.176-1.233-.505-2.221-.506-3.21-.03-18.934 0-37.867-.046-56.801-.008-3.02-.461-6.039-.481-9.061-.063-9.86.019-19.721-.062-29.58-.015-1.78.513-2.397 2.499-2.342 4.483.126 8.977.107 13.462.012 2.53-.052 4.039.621 4.119 4.024.113 4.711.028 9.426.028 14.139V172.672c0 5.879.062 11.758-.013 17.636-.127 10.065-.418 20.129-.455 30.193-.009 2.345-1.792 2.298-3.166 2.422-3.78.341-7.589.456-11.39.529-3.285.064-4.353-1.645-4.083-4.7.266-3.019-.297-6.096-.372-9.15-.027-1.144.301-2.296.466-3.687Zm1.584-79.739c0 5.875-.044 11.751.008 17.627.154 17.396.348 34.792.517 52.188.027 2.708.003 5.416.003 8.124 0 5.064.065 10.129-.036 15.191-.033 1.65.437 2.401 2.325 2.231 2.472-.224 4.965-.261 7.431-.52 4.546-.478 4.541-.521 4.541-4.79v-62.22c0-13.321-.014-26.642.022-39.963.004-1.232.277-2.472.518-3.694.458-2.336-.034-2.943-2.56-2.949-3.519-.009-7.038.042-10.555-.02-2.001-.035-2.815.764-2.76 2.587.073 2.382-.049 4.769.036 7.149.102 2.859.334 5.714.51 9.059Z" fill="#00160A"/><path d="M255.775 128.391h14.733l1.769 93.602h-16.502v-93.602Z" fill="#fff"/><path d="M255.719 127.397c1.159-.162 2.047-.42 2.95-.47 3.618-.203 7.242-.346 10.864-.504 1.692-.074 2.532.626 2.573 2.249.14 5.456.437 10.911.477 16.368.025 3.291-.379 6.581-.457 9.873-.03 1.229.468 2.464.471 3.696.038 12.754-.039 25.507.046 38.26.052 7.731.345 15.461.497 23.192.046 2.354-1.086 3.385-3.71 3.406-3.958.032-7.919-.07-11.874.044-1.833.053-2.393-.471-2.402-2.18a16788.74 16788.74 0 0 0-.512-69.172c-.031-3.507-.41-7.012-.486-10.521-.09-4.034-.085-8.073.039-12.105.021-.722.82-1.424 1.524-2.136Zm1.057 26.093c0 7.749-.059 15.498.012 23.247.132 14.264.339 28.529.515 42.794.004.324-.145.768.03.951.398.416.96 1.004 1.442.994 3.274-.069 6.543-.32 9.817-.422 1.751-.054 2.553-.809 2.433-2.375-.127-1.642-.469-3.277-.497-4.918-.213-12.53-.444-25.059-.514-37.59-.03-5.161.443-10.324.456-15.486.01-4.349-.401-8.697-.469-13.048-.089-5.607-.064-11.216.008-16.823.019-1.453-.47-2.072-2.076-1.965-3.005.202-6.015.462-9.023.453-1.828-.005-2.193.684-2.159 2.161.077 3.44.025 6.883.025 10.323v11.704Z" fill="#00160A"/><path d="M212.164 155.596h14.733l1.768 66.392h-16.501v-66.392Z" fill="#fff"/><path d="M228.783 189.824c.175 8.538.358 16.831.522 25.126.036 1.812-.189 3.65.053 5.435.32 2.355-1.635 2.469-3.021 2.535-4.122.193-8.262.138-12.391.032-1.488-.037-2.68-.58-2.63-2.424.115-4.274.071-8.552.03-12.829-.16-16.925-.35-33.851-.517-50.777-.029-2.911.286-3.185 3.383-3.187 3.692-.002 7.385.06 11.076-.024 2.07-.048 2.975.644 3.002 2.626.04 3.019.441 6.034.468 9.053.071 8.063.025 16.127.025 24.434Zm-2.114-13.411c-.175-2.533-.444-5.063-.506-7.599-.087-3.6-.038-7.205-.014-10.808.011-1.58-.768-2.399-2.491-2.313-2.657.133-5.315.494-7.964.425-2.174-.057-2.85.506-2.805 2.572.272 12.552.436 25.107.562 37.662.075 7.339.038 14.68-.007 22.02-.008 1.348.275 2.604 1.868 2.613 3.093.019 6.192-.427 9.283-.381 2.092.032 2.722-.545 2.642-2.469a710.082 710.082 0 0 1-.548-20.272c-.088-6.986-.02-13.975-.02-21.45Z" fill="#00160A"/><g fill="#fff"><path d="M133.186 210.796c4.431 1.462 8.756 2.713 11.877 5.873 4.719 4.783 5.72 10.428 4.668 16.695-1.578 9.393-6.544 17.49-11.089 25.753-1.412 2.566-3.194 4.959-4.824 7.422-2.043 3.085-3.984 6.031-3.934 10.005.055 4.424-1.064 8.849-1.413 13.291-.365 4.635.769 9.04 3.103 13.183.3.534.218 1.252.313 1.885-.623-.37-1.401-.624-1.846-1.129-3.066-3.495-3.836-7.796-4.161-12.024-.497-6.453.289-12.901 2.102-19.157.683-2.356 1.979-4.657 3.45-6.704 6.837-9.511 12.67-19.467 15.379-30.678.872-3.606 1.633-7.413.422-11.232-1.845-5.82-6.487-8.798-12.377-10.183-4.357-1.024-8.88-1.709-13.366-1.951-7.918-.426-15.89-.099-23.794-.65-7.136-.498-14.426-.098-21.357-2.343-4.541-1.47-7.158-4.466-8.032-8.73-.117-.566.907-1.332 1.403-2.007.56.697 1.517 1.35 1.612 2.096.396 3.115 2.457 5.001 5.361 5.87 3.439 1.03 7.036 2.039 10.606 2.182 10.564.426 21.154.248 31.719.661 4.658.182 9.277 1.221 14.178 1.872Z"/><path d="M58.056 229.937c-2.824-1.06-4.702-2.702-5.265-5.382-.098-.468.206-1.009.324-1.516.6.196 1.387.237 1.762.622.646.661.943 1.604 1.55 2.308 3.178 3.685 7.726 3.035 11.896 2.785 4.4-.264 8.753-1.207 13.124-1.866 7.499-1.132 14.995-2.279 22.495-3.41 6.578-.994 12.785-.159 18.37 3.384 4.457 2.827 6.253 7.052 6.616 11.793.824 10.74-2.495 20.787-6.595 30.62-2.064 4.954-2.881 10.021-2.282 15.184.882 7.591 2.17 15.154 7.22 21.6.281.359.597.811.593 1.218-.006.588-.289 1.173-.454 1.761-.499-.277-1.165-.446-1.469-.848-4.02-5.305-6.357-11.245-7.527-17.588-.451-2.451-.786-4.923-1.06-7.397-.769-6.941 1.869-13.17 4.593-19.447 1.636-3.767 2.924-7.728 3.749-11.711.797-3.851 1.137-7.846 1.06-11.768-.082-4.099-.722-8.381-4.65-11.057-2.182-1.486-4.851-2.673-7.489-3.22-6.501-1.349-12.98-.213-19.437.863-7.477 1.245-14.958 2.586-22.501 3.335-4.77.473-9.657-.059-14.623-.263Z"/></g><path d="M183.875 174.104h-16.501v47.889h16.501v-47.889Z" fill="#fff"/><path d="M165.932 195.192c0-6.012-.007-11.781.003-17.551.004-3.666 1.346-4.883 5.338-4.883 3.783 0 7.569.056 11.351-.022 2.148-.045 2.883.802 2.876 2.735-.048 14.788-.02 29.575-.031 44.362-.002 2.639-.594 3.157-3.421 3.158-4.311.001-8.623-.031-12.934.014-1.851.02-2.644-.694-2.673-2.421-.135-8.384-.333-16.765-.509-25.392Zm16.108 25.361c.441-.55 1.237-1.091 1.251-1.649.036-1.391-.453-2.793-.423-4.185.064-3.105.446-6.206.469-9.309.067-9.429.009-18.858.037-28.286.006-1.725-.805-2.507-2.66-2.418-3.536.171-7.078.269-10.602.552-.553.045-1.429.875-1.475 1.394-.301 3.446-.562 6.906-.554 10.362.009 3.89.413 7.779.467 11.67.085 6.176.022 12.354.022 18.532 0 3.749 0 3.745 4.027 3.342.435-.043.88-.016 1.32-.003 2.619.077 5.238.16 8.121-.002Z" fill="#00160A"/><path d="M215.578 305.405c-2.203-.226-2.817-1.592-1.902-2.762 2.721-3.481 5.741-6.768 8.729-10.065.404-.447 1.29-.522 1.953-.769-.053.659.073 1.389-.191 1.966-1.106 2.42-2.313 4.801-3.517 7.182-.62 1.226-.092 1.308 1.055 1.056a4.568 4.568 0 0 1 1.834.006c.539.11 1.023.45 1.531.69-.238.392-.432.815-.722 1.171a2067.3 2067.3 0 0 1-9.703 11.877c-.29.352-.756.58-1.141.865-.189-.441-.633-.948-.525-1.314.69-2.323 1.538-4.607 2.257-6.924.3-.968.411-1.984.342-2.979Z" fill="#FFB61D"/><path d="M226.274 277.727c.749.003 1.365.127 1.981.252-.155.426-.192.945-.485 1.262a948.519 948.519 0 0 1-10.388 11.05c-.396.416-1.073.603-1.618.896.06-.658-.115-1.453.225-1.945.986-1.426 2.123-2.773 3.304-4.073 2.245-2.47 4.562-4.884 6.981-7.442ZM201.978 319.68c-1.528.382-2.233.082-1.268-1.249 1.574-2.171 3.158-4.342 4.895-6.4.347-.41 1.396-.317 2.121-.455-.192.622-.222 1.352-.605 1.847-1.612 2.083-3.331 4.097-5.143 6.257Z" fill="#00160A"/><path d="m342.998 401.032 10.019 24.489 15.323-9.251-4.715-17.959 14.734-9.251 5.304-26.666h44.201l-10.608 59.318-4.126 30.475-1.768 28.843 6.483 6.53 8.251 3.809h11.197l7.662-1.632 14.144-27.754 11.787-28.843 15.912-55.509 8.84-4.897s8.251-23.401 8.251-35.374c0-11.972 5.333-47.53-2.357-72.922-6.404-21.145-27.699-50.067-27.699-50.067l-14.734-14.149 2.357-46.801-46.558-5.442-7.661 19.591s4.125 16.87 10.608 23.4c4.105 4.136 12.966 3.266 12.966 3.266l5.304 23.944-5.304 9.796-13.555 32.652-2.358 27.754-41.254 10.34 17.091 9.252-64.238 8.707s-14.145 6.53-9.43 32.108c4.715 25.577 15.912 49.522 15.912 49.522l10.019 2.721Z" fill="#fff"/><path d="M481.494 379.268c5.516-2.877 10.489-3.948 14.106-7.964 10.051-11.709 9.696-106.273 5.342-104.142-4.393 2.152-3.763 20.172-2.947 23.945 4.126 19.047-6.99 63.957-7.956 65.85-.884 9.794-14.919 13.607-24.457 17.413-4.952 1.977-11.692 2.549-11.787 4.898-.083 2.046 3.975 4.054 6.835 3.756 6.799-.71 15.341-.874 20.864-3.756ZM434.513 479.351c-1.402 3.352-1.572 6.654-1.732 10.243 2.154 1.038 4.798 1.654 7.177 1.038.635-.163 1.293-.249 1.935-.384.797-.167 1.017-.504 1.62-.986 1.19-.955 2.354-2.016 3.24-3.221 3.35-4.555 6.472-9.501 8.595-14.668.885-2.154 2.191-4.276 3.432-6.293l.078-.126c.6-.977.877-2.195 1.463-3.221.608-1.068.919-2.204 1.26-3.366.687-2.349 2.008-4.516 2.587-6.918.516-2.148 1.699-4.161 2.34-6.275.673-2.221 1.466-4.401 1.958-6.669.244-1.127.822-2.661.45-3.792-.375-1.135-2.05.04-2.712.467-2.746 1.775-4.479 3.521-5.726 6.441-1.638 3.834-4.312 7.39-7.447 10.285-3.173 2.93-5.862 6.31-8.506 9.64-2.647 3.332-5.322 6.764-7.177 10.533a85.757 85.757 0 0 0-1.732 3.719c-.499 1.152-.623 2.407-1.103 3.553Z" fill="#E7EAEE"/><path d="M347.712 436.406c-10.488 9.147-27.841 22.749-20.627 34.285 6.126 9.795 25.873-7.423 37.718-16.87 11.14-8.884 23.329-23.987 18.27-29.932-6.483-7.618-24.752 3.266-35.361 12.517Z" fill="#fff"/><g fill="#00160A"><path fill-rule="evenodd" clip-rule="evenodd" d="M409.164 143.914c2.035-1.167 4.022-2.406 6.157-3.743 1.387.139 1.951.496.475 1.357-3.831 2.235-7.662 4.512-9.817 8.409-.277.499-.252 1.142-.226 1.786.012.296.024.593.006.876.299-.082.604-.152.91-.222.679-.154 1.358-.308 1.953-.606.85-.425 1.66-.918 2.47-1.413a43.817 43.817 0 0 1 1.934-1.133c.257-.139.669-.054 1.038.022l.208.043c.056.009.126.49.017.654-1.13 1.704-1.869 3.598-2.609 5.495-1.257 3.221-2.516 6.448-5.696 8.761-2.126 1.546-1.75 4.772.205 5.977 1.176.724 5.962.315 7.086-.627a4.65 4.65 0 0 0 .549-.581l.001-.001c.079-.094.158-.188.24-.279-.134-.069-.268-.159-.403-.248-.294-.196-.59-.392-.877-.381-.447.019-.895.111-1.341.204-.535.111-1.068.221-1.597.201-.595-.022-1.183-.233-1.77-.444-.26-.094-.519-.187-.78-.264.097-.241.181-.49.263-.741l.001-.001c.186-.558.372-1.115.715-1.57.33-.438.753-.826 1.175-1.212.58-.531 1.155-1.058 1.473-1.702a172.167 172.167 0 0 0 5.269-11.701c.671-1.659 1.564-2.629 3.491-2.427.716.075 1.438.13 2.162.187 1.974.152 3.954.306 5.801.844 9.245 2.693 15.424 7.626 15.921 18.493.044.955-.092 1.914-.226 2.874-.098.692-.196 1.384-.227 2.076-.014.324.194.656.401.988l.001.001c.095.152.19.304.264.456.15-.074.308-.138.467-.203.355-.146.711-.29.967-.529.331-.308.594-.678.858-1.05.152-.214.304-.429.47-.631.34-.417.661-.857.983-1.297.785-1.072 1.572-2.145 2.623-2.891 1.104-.784 3.027-1.207 4.348-.902 1.313.304 1.836 1.774 1.813 3.38-.038 2.61-1.144 4.556-2.767 6.591l-.135.17c-1.49 1.866-3.516 4.404-3.07 6.134.934 3.624 2.365 7.134 3.798 10.647v.001c.763 1.871 1.525 3.742 2.214 5.633.312.856.173 2.327-.429 2.93-4.333 4.329-8.765 8.574-13.196 12.818l-.015.014-3.102 2.974a6.359 6.359 0 0 1-.75.586c-.121.086-.243.172-.362.26-.072-.127-.158-.253-.244-.38-.186-.27-.371-.541-.416-.831-1.176-7.523-3.116-14.829-6.81-21.67-.182-.338.292-1.428.618-1.495 4.45-.911 8.546-2.543 12.26-4.989.324-.213.55-.559.776-.906.103-.16.208-.32.322-.466a6.874 6.874 0 0 1-.648-.135c-.475-.117-.95-.232-1.316-.095-1.168.436-2.314.93-3.46 1.424-1.656.714-3.31 1.426-5.028 1.965-8.613 2.705-15.493.965-19.776-6.063-1.407-2.309-2.069-5.009-2.732-7.716-.334-1.359-.669-2.721-1.098-4.036-.135-.416-.496-.769-.855-1.122a7.897 7.897 0 0 1-.478-.495c-.133.206-.312.42-.491.634-.388.465-.777.93-.693 1.304a114.087 114.087 0 0 0 2.542 9.556c1.638 5.225 5.358 8.671 10.778 10.62.711.256 1.709.887 1.774 1.427.189 1.588.245 3.276-.129 4.823-1.496 6.202-5.717 10.938-9.932 15.668l-.999 1.121-.008.009-.008.009c-2.768 3.104-5.539 6.211-8.114 9.45-1.267 1.594-2.187 3.532-1.069 5.657 1.795 3.415 5.682 3.494 9.809 2.754 5.796-1.038 10.376-4.22 14.7-7.764.209-.17.475-.278.742-.385.123-.051.248-.101.366-.157.05.158.119.317.188.477.149.348.299.695.255 1.02-.258 1.925-.549 3.853-1.012 5.741a12.036 12.036 0 0 1-1.403 3.374c-.45.735-.987 1.436-1.524 2.136-.871 1.137-1.738 2.267-2.22 3.532-2.23 5.858-4.294 11.788-6.034 17.787-2.421 8.348-4.711 16.757-3.543 25.564.067.501-.089 1.414-.377 1.51-.673.222-1.355.484-2.038.749l-.011.003c-1.937.748-3.898 1.505-5.781 1.38-3.29-.218-6.178-.019-9.207 1.185-2.016.801-4.199 1.258-6.367 1.711-.474.099-.947.198-1.417.301-1.201.261-2.415.478-3.628.697-1.787.321-3.574.642-5.321 1.101-1.012.266-2.611 1.514-2.494 2.025.278 1.221-.19 1.178-1.002 1.103l-.058-.006c-1.389-.128-2.779-.252-4.167-.377-3.833-.342-7.665-.685-11.488-1.111-2.627-.292-5.247-.643-7.868-.993a382.241 382.241 0 0 0-7.312-.931c-2.112-.241-4.234-.416-6.356-.589l-.014-.001-.007-.001c-1.588-.129-3.175-.26-4.759-.418-1.49-.15-2.978-.324-4.466-.497-3.027-.355-6.054-.709-9.093-.854-1.147-.054-3.024 1.061-3.412 2.037-.677 1.703 1.215 2.513 2.666 2.706 4.76.63 9.547 1.087 14.335 1.51 6.178.547 12.36 1.072 18.55 1.468 4.623.296 9.248.546 13.875.796h.003c4.188.227 8.377.453 12.563.714 1.9.118 3.793.317 5.687.517l.012.001c1.462.154 2.925.308 4.39.425 1.423.113 2.888.156 4.288-.043.436-.062.821-.44 1.205-.819.174-.172.349-.344.528-.486a8.482 8.482 0 0 1-.673-.395c-.484-.302-.969-.605-1.479-.651-2.969-.265-5.944-.475-8.921-.685l-.015-.001a970.51 970.51 0 0 1-4.829-.35c-.301-.023-.594-.135-.886-.247-.137-.052-.273-.104-.409-.148.127-.101.248-.22.371-.338.264-.258.529-.517.845-.595l.618-.153h.001c2.173-.54 4.356-1.082 6.571-1.423.831-.127 1.668-.236 2.504-.344 3.491-.452 6.974-.903 10.057-2.787.264-.162.6-.315.903-.317.669-.004 1.337-.011 2.005-.017h.013c2.691-.025 5.382-.05 8.068.041 1.316.044 3.471 2.881 3.279 4.111-.286 1.836-.601 3.677-1.082 5.474-.165.619-.775 1.491-1.333 1.605-.953.194-1.907.4-2.86.604l-.021.005-.012.003h-.003c-3.561.765-7.132 1.533-10.741 1.793-2.883.209-5.796.044-8.712-.121-1.669-.095-3.339-.19-5.005-.215-.523-.007-1.051.278-1.578.563a8.918 8.918 0 0 1-.732.366c.245.154.487.343.729.532.525.411 1.052.823 1.621.885 1.555.167 3.123.237 4.69.307 1.433.064 2.866.127 4.29.265 3.379.329 6.71-.127 10.041-.583 3.708-.507 7.416-1.016 11.192-.441 1.302.198 2.623.304 3.943.409 1.797.144 3.591.286 5.331.662l.761.165c8.719 1.884 17.416 3.765 26.453 3.713 2.871-.016 4.054 1.118 4.07 3.801.01 1.737.026 3.475.043 5.212v.012c.057 5.975.114 11.954-.091 17.923-.124 3.615-.474 7.225-.824 10.834-.249 2.564-.497 5.129-.665 7.698-.462 7.055-.771 14.121-1.025 21.186-.032.913.384 2.119 1.066 2.727 3.11 2.769 7.054 4.023 11.15 3.129l1.06-.23c6.453-1.401 12.947-2.812 18.851-5.851.487-.25 1.081-.321 1.676-.39.275-.033.551-.066.816-.117l-.298.53-.001.004c-.235.415-.468.83-.697 1.248-.05.091-.105.182-.159.272-.146.245-.295.491-.357.753a549.877 549.877 0 0 0-1.643 7.078c-1.137 4.996-2.274 9.993-3.699 14.916-2.822 9.751-5.996 19.418-9.273 29.047-.798 2.343-1.794 4.63-2.79 6.917-1.114 2.554-2.226 5.107-3.061 7.74-4.162 13.122-10.972 25.079-17.93 37.004-2.614 4.481-6.874 5.761-11.827 5.649-2.453-.056-4.902-.389-7.344-.72-.564-.076-1.127-.152-1.691-.225-6.098-.79-12.543-4.813-12.322-11.815.122-3.825.217-7.651.313-11.478v-.011c.075-3.054.152-6.108.24-9.162.008-.286.11-.569.212-.852.083-.231.167-.463.201-.698.185-1.286.373-2.572.562-3.857.575-3.909 1.149-7.818 1.605-11.738.156-1.336.185-2.69.215-4.042.04-1.786.079-3.571.409-5.31 1.219-6.437 2.58-12.851 3.941-19.265l.004-.014c.596-2.809 1.193-5.619 1.776-8.431.416-1.998.837-3.996 1.259-5.995 1.191-5.646 2.381-11.294 3.442-16.962.643-3.449 1.104-6.927 1.565-10.405.186-1.412.374-2.825.573-4.234.086-.606.145-1.216.205-1.827l.001-.007c.109-1.114.218-2.226.482-3.306.493-2.02 1.063-4.025 1.633-6.029.373-1.314.747-2.628 1.1-3.947.063-.242-.029-.519-.122-.797-.042-.128-.086-.257-.113-.382-.116.052-.24.097-.365.14-.276.1-.552.199-.731.38l-.031.031c-.494.503-1.029 1.048-1.261 1.667-.857 2.291-1.707 4.595-2.333 6.946-.432 1.625-1.237 2.622-3.067 2.841-.786.094-1.571.194-2.355.293h-.003l-.005.001c-3.974.504-7.93 1.005-12.03.787-4.02-.213-8.068-.008-12.112.197-1.501.076-3.001.152-4.5.207-.513.018-1.023.119-1.533.221-.557.111-1.112.221-1.669.224-.364.001-.731.009-1.1.017-1.642.035-3.318.071-4.768-.423-.501-.171-.666-1.197-.832-2.231-.078-.486-.156-.972-.27-1.373-.027-.098-.1-.185-.173-.272-.032-.038-.064-.076-.092-.115l-1.003-1.392-.406-.563a9.66 9.66 0 0 1-.344.702c-.266.512-.533 1.022-.562 1.544-.123 2.232-.194 4.482-.014 6.706.326 4.04-.708 7.853-1.741 11.669a104.41 104.41 0 0 0-.964 3.735c-.467 2.013-1.812 2.442-3.711 2.142-4.846-.765-9.672-1.469-14.61-.512-1.497.29-3.021.49-4.544.692-2.527.333-5.048.665-7.431 1.403-4.59 1.42-9.1 3.328-13.233 5.661-2.069 1.166-2.638 1.068-3.406-.756a561.695 561.695 0 0 0-2.362-5.501c-1.849-4.266-3.698-8.534-5.293-12.882-.797-2.169-1.212-4.456-1.627-6.747-.234-1.295-.469-2.59-.773-3.866-.2-.842-.404-1.683-.607-2.524l-.001-.002c-2.118-8.753-4.227-17.468-2.962-26.651.846-6.147 4.59-10.64 10.553-12.608 8.863-2.924 18.095-4.237 27.32-5.547l.031-.005 2.136-.304c4.069-.583 8.154-1.071 12.238-1.56l.015-.002h.003c2.565-.307 5.129-.614 7.691-.945.281-.036.535-.258.787-.48.118-.102.236-.206.357-.291-.112-.123-.221-.277-.331-.432-.237-.334-.474-.669-.727-.68l-.843-.037c-2.087-.096-4.193-.193-6.252.032-3.783.411-7.548.976-11.313 1.541l-2.552.382c-.954.141-1.91.279-2.865.419-3.813.555-7.627 1.11-11.41 1.81-2.384.441-4.744.997-7.104 1.554l-.002.001c-1.615.381-3.231.762-4.855 1.106-6.307 1.336-11.063 4.528-14.176 9.872-1.609 2.762-1.795 5.73-1.736 8.729.067 3.451.215 6.908.535 10.345.26 2.792.738 5.575 1.277 8.334.452 2.311.971 4.609 1.489 6.908.297 1.316.594 2.632.878 3.95.194.894.346 1.803.498 2.711.308 1.852.618 3.704 1.277 5.441 1.27 3.344 2.72 6.628 4.169 9.913a354.956 354.956 0 0 1 2.466 5.676c.348.827.755 1.638 1.161 2.449 1.235 2.462 2.472 4.927 2.072 7.867-.067.49.352 1.06.743 1.592.106.145.21.288.302.424 1.823 2.719 4.808 2.871 7.663 3.018.314.015.625.031.933.051 1.787.111 2.701.792 3.239 2.118.793 1.956 1.553 3.924 2.314 5.892a399.81 399.81 0 0 0 2.117 5.401 266.147 266.147 0 0 0 1.928 4.633c.746 1.763 1.493 3.527 2.197 5.304.7 1.771 1.625 1.99 3.32.982 2.052-1.22 4.129-2.406 6.205-3.593l.005-.002c2.469-1.412 4.938-2.822 7.368-4.29.617-.373 1.164-1.582.992-2.232-.711-2.68-1.538-5.335-2.367-7.99l-.001-.003v-.001c-.333-1.069-.667-2.138-.994-3.208-.185-.609-.411-1.218-.636-1.829-.536-1.444-1.071-2.891-1.071-4.336 0-1.692 1.355-2.129 2.752-2.58.937-.302 1.893-.61 2.471-1.308.257-.31.723-.464 1.196-.618.257-.085.516-.171.745-.282 4.18-2.048 7.825-4.456 8.488-9.357.342-2.527 1.06-4.99 1.779-7.455 1.094-3.747 2.188-7.498 1.96-11.478-.017-.311.561-.914.902-.941 2.99-.234 5.988-.465 8.986-.51 2.19-.032 4.381-.017 6.573-.002h.004c2.982.022 5.966.043 8.943-.059 1.491-.051 2.99.007 4.491.064 3.473.131 6.953.264 10.359-.941.779-.275 2.657-.805 2.321 1.328-.291 1.849-.568 3.699-.846 5.551v.002c-.567 3.784-1.135 7.57-1.819 11.337-.713 3.93-1.551 7.842-2.389 11.752l-.001.003-.006.028c-.343 1.6-.686 3.2-1.021 4.802a909.16 909.16 0 0 1-.843 3.983c-.506 2.378-1.013 4.755-1.487 7.137l-.144.721c-.695 3.489-1.391 6.981-1.951 10.49a856.89 856.89 0 0 0-2.63 17.875c-.118.857-.151 1.73-.183 2.601-.047 1.291-.094 2.579-.422 3.806-1.569 5.877-2.224 11.806-2.065 17.849.062 2.337.048 4.678.034 7.018-.009 1.586-.019 3.172-.006 4.758.007.725-.029 1.464-.066 2.204-.091 1.854-.183 3.715.395 5.367 1.866 5.335 6.64 8.081 12.173 9.331 4.672 1.053 9.461 1.618 14.375 1.124 3.877-.389 7.194-1.758 9.199-4.659 3.127-4.527 5.994-9.267 8.387-14.165 3.928-8.041 7.546-16.223 10.993-24.456 1.508-3.602 2.782-7.287 4.056-10.973l.011-.026a338.757 338.757 0 0 1 2.036-5.784c.699-1.912 1.422-3.816 2.144-5.72l.002-.002c1.201-3.162 2.401-6.324 3.49-9.518 1.435-4.205 2.656-8.479 3.806-12.76 1.615-6.015 3.113-12.058 4.579-18.106.114-.47.245-.947.378-1.427.485-1.757.981-3.553.662-5.184-.339-1.722.348-2.078 1.44-2.521.379-.153.763-.305 1.144-.455 3.193-1.254 6.374-2.502 7.766-5.926.176-.437.357-.872.537-1.308l.002-.006c.666-1.61 1.333-3.223 1.858-4.873.243-.766.495-1.532.747-2.299.95-2.887 1.904-5.781 2.395-8.737.87-5.226 1.335-10.531 1.616-15.819.373-6.985.474-13.986.541-20.98.018-1.916-.123-3.832-.265-5.75-.085-1.151-.17-2.303-.22-3.456-.122-2.772-.222-5.546-.321-8.32v-.009c-.204-5.678-.408-11.356-.798-17.023-.388-5.637-1.058-11.286-2.113-16.846-1.508-7.953-3.727-15.777-7.84-22.961-.369-.644-.736-1.289-1.104-1.933-3.7-6.475-7.408-12.963-11.63-19.135-2.763-4.04-6.321-7.776-10.189-10.942-1.174-.96-2.413-1.854-3.652-2.748-2.458-1.773-4.918-3.548-6.882-5.852a2.78 2.78 0 0 1-.62-1.66c-.003-.229.762-.648 1.199-.674 4.993-.294 8.828-2.834 12.057-5.969 5.749-5.582 9.564-12.181 11.465-19.85l.31-1.24v-.003c1.186-4.709 2.354-9.348 1.152-14.198-1.997-8.053-6.172-15.145-12.333-20.962-9.494-8.963-21.149-11.632-34.286-8.918-.534.111-1.143.049-1.689-.059-.511-.101-1.023-.246-1.532-.389-.924-.262-1.846-.522-2.77-.524-3.347-.006-6.74.014-10.029.512-2.769.418-5.473 1.269-8.155 2.112h-.001c-.336.107-.673.212-1.009.317-.501.157-.894.612-1.288 1.068-.18.209-.362.419-.553.598.268.078.539.182.81.285.595.229 1.19.458 1.75.398 1.31-.142 2.605-.395 3.902-.65.808-.158 1.616-.317 2.428-.449.357-.056.735.004 1.114.065.173.027.347.055.519.072a6.372 6.372 0 0 0-.36.512c-.252.384-.505.77-.874.962-.892.466-1.821.882-2.747 1.298-1.502.673-3.001 1.346-4.345 2.228-.476.312-.969.614-1.464.916-2.196 1.345-4.428 2.711-5.47 5.187-.116.274-.107.593-.099.912.004.147.008.295 0 .439.153-.019.315-.026.477-.033.352-.014.703-.028.964-.178Zm56.834 68.341c-4.262 4.979-8.153 10.211-10.294 16.373-5.261 9.047-7.04 18.485-6.259 28.324.259 3.272.779 6.526 1.299 9.781l.001.005c.259 1.618.518 3.239.745 4.861.147 1.054.278 2.111.41 3.168v.001c.209 1.671.417 3.343.687 5.005.064.393.368.751.673 1.11.139.165.281.331.396.499.161-.21.361-.419.563-.628.439-.456.879-.913.881-1.371.012-2.214-.228-4.438-.527-6.64-.172-1.277-.398-2.548-.623-3.818-.335-1.883-.668-3.764-.83-5.659-.363-4.252-.507-8.529-.548-12.796-.064-6.754 1.845-13.126 4.721-19.265.264-.563.525-1.129.787-1.694v-.001l.001-.001c1.185-2.562 2.372-5.128 3.816-7.558 1.597-2.688 3.543-5.221 5.558-7.661 1.843-2.23 2.995-2.259 4.858-.052l.842.997c3.304 3.902 6.59 7.784 8.963 12.371 1.826 3.53 3.906 6.947 5.987 10.364l.002.004c1.906 3.131 3.813 6.263 5.526 9.484 1.312 2.469 1.978 5.257 2.635 8.014.145.611.291 1.22.444 1.823 1.056 4.195 1.926 8.433 2.768 12.671.163.821.336 1.643.509 2.465l.002.004c.615 2.918 1.231 5.843 1.413 8.786.267 4.333.344 8.676.421 13.019v.011c.049 2.784.099 5.569.198 8.352.098 2.726.261 5.454.426 8.182.3 4.99.6 9.979.493 14.961-.082 3.787-.524 7.566-.966 11.345-.398 3.388-.794 6.777-.932 10.172-.207 5.131-1.764 9.929-3.318 14.719-.591 1.822-1.182 3.644-1.698 5.481-.737 2.624-2.759 5.168-6.364 6.33-2.356.76-4.586 1.853-6.819 2.947h-.002c-2.168 1.062-4.335 2.124-6.618 2.882-3.041 1.009-6.302 1.463-9.548 1.916-.947.132-1.893.264-2.832.41-1.479.229-3.144.371-4.534-.027-4.197-1.195-4.769-1.963-4.636-6.023.273-8.289.626-16.577 1.05-24.862.134-2.633.35-5.262.566-7.891.162-1.977.325-3.954.452-5.933l.124-1.847v-.004c.21-3.076.421-6.156.356-9.229-.065-3.141-.533-6.287-1.024-9.403-.474-3.004.816-3.895 4.121-3.38 7.278 1.133 14.435.502 20.887-3.068 4.076-2.255 5.659-6.348 6.492-10.4.42-2.04.534-4.133.647-6.227.108-1.963.215-3.928.573-5.85 1.561-8.35 1.583-16.746 1.489-25.16-.026-2.305-.258-4.615-.548-6.907-.057-.44-.368-.853-.679-1.265l-.001-.001c-.143-.19-.286-.379-.403-.571a7.73 7.73 0 0 1-.532.543c-.415.397-.83.793-.903 1.238-.181 1.101-.137 2.239-.091 3.371v.005c.011.262.022.524.029.784.05 1.725.134 3.451.219 5.177.184 3.772.368 7.542.199 11.298-.119 2.636-.614 5.254-1.109 7.874-.319 1.683-.638 3.369-.857 5.059-.181 1.398-.236 2.811-.29 4.222-.056 1.472-.114 2.943-.313 4.399-.593 4.301-2.176 8.447-6.367 10.638-2.689 1.405-6.102 2.14-9.211 2.197-3.914.072-7.837-.221-11.76-.514-1.663-.124-3.326-.249-4.989-.345-.93-.054-1.864-.09-2.797-.127H450c-1.98-.076-3.961-.153-5.918-.399-3.713-.468-7.41-1.033-11.109-1.598a911.319 911.319 0 0 0-5.429-.819 207.06 207.06 0 0 1-2.808-.436l-.014-.002c-2.519-.404-5.04-.808-7.577-.964-2.249-.137-2.147-1.35-1.909-2.593.151-.785.42-1.553.687-2.32.316-.906.632-1.811.752-2.74.289-2.236-.324-4.309-2.554-5.676-1.544-.948-1.589-1.219.192-1.912 1.795-.696 3.744-1.41 5.641-1.449 7.711-.162 15.441-.31 23.141.015 4.184.175 8.348.786 12.506 1.396 1.239.182 2.478.363 3.715.534.408.055.763.389 1.126.73.215.201.43.405.661.555.375.244.96.612 1.231.492.358-.159.719-.749.701-1.138-.134-2.952-.287-5.907-.587-8.847-.083-.834-.266-1.659-.448-2.484-.204-.925-.407-1.849-.473-2.783-.188-2.648-.29-5.3-.394-7.954v-.008c-.053-1.366-.106-2.733-.171-4.099a91.86 91.86 0 0 0-.231-3.26c-.19-2.287-.38-4.572-.206-6.835.247-3.232.808-6.444 1.369-9.654.207-1.18.413-2.361.604-3.542.075-.467.142-.937.21-1.407v-.001l.001-.003c.219-1.533.439-3.074.944-4.524.95-2.735 2.513-5.278 6.001-5.581 1.037-.091 2.099.127 3.167.346.615.126 1.231.252 1.844.321.698.077 1.405.073 2.113.068.318-.002.635-.004.952.001-.217-.267-.415-.583-.613-.898-.429-.682-.858-1.363-1.471-1.567-5.231-1.738-10.444-1.421-13.037 4.342-1.411 3.133-2.618 6.463-3.125 9.807-.143.944-.294 1.888-.444 2.832-.852 5.348-1.707 10.711-1.246 16.173.293 3.498.548 6.998.801 10.499.259 3.575.519 7.151.822 10.723.093 1.104.325 2.199.556 3.295.154.73.309 1.46.423 2.193.021.142-.636.58-.879.521-1.015-.245-2.025-.558-3.033-.87-1.974-.612-3.945-1.222-5.946-1.32-9.031-.439-18.091-.634-27.13-.465-2.769.052-3.005-.514-3.019-2.749-.061-9.465 2.547-18.381 5.962-27.16.037-.095.125-.186.207-.273.104-.109.201-.21.182-.299a24.415 24.415 0 0 0-.486-1.805c-.061-.21-.123-.419-.182-.629-.158.179-.338.351-.517.523-.386.372-.774.745-.936 1.189-.41 1.124-.838 2.245-1.267 3.366-1.269 3.316-2.54 6.638-3.32 10.055-.812 3.56-1.226 7.201-1.638 10.841v.005c-.181 1.587-.361 3.175-.573 4.756-.033.239-.02.512-.006.785.042.884.086 1.784-1.394 1.632-.506-.052-1.282-1.75-1.159-2.593.171-1.172.336-2.347.5-3.521.722-5.154 1.446-10.316 2.684-15.364 1.368-5.575 3.211-11.05 5.053-16.519l.007-.024c.404-1.198.807-2.396 1.205-3.595.339-1.018.996-1.948 1.653-2.873l.001-.001a29.3 29.3 0 0 0 .753-1.097 509.658 509.658 0 0 1 3.237-4.931l.621-.939c.364-.551.737-1.097 1.109-1.644.171-.25.342-.5.512-.752.16.258.342.511.524.763.402.556.805 1.114.962 1.724.226.874.363 1.769.499 2.664.168 1.109.338 2.216.675 3.278.337 1.06 1.313 2.567 2.198 2.696 1.161.169 2.999-.486 3.711-1.37 4.424-5.5 8.723-11.087 13.023-16.674 1.138-1.477 2.275-2.955 3.415-4.431.284-.367.59-.767.699-1.195.061-.24-.012-.511-.086-.782-.032-.12-.065-.241-.086-.358-.115.043-.242.077-.369.111-.274.072-.548.145-.696.313l-.402.462c-2.099 2.406-4.2 4.814-6.21 7.284-2.29 2.816-4.547 5.656-6.805 8.495a1673 1673 0 0 1-3.531 4.435 2.766 2.766 0 0 1-.338.328c-.138.119-.277.238-.377.38-.247.351-.464.72-.681 1.088-.09.154-.181.307-.273.46-.121-.236-.277-.473-.431-.709-.336-.515-.672-1.028-.671-1.542.011-2.944-.545-5.727-2.187-8.251a7.754 7.754 0 0 1-.31-.548c-.462-.873-.961-1.814-2.533-1.183-.069.029-.711-.777-.787-1.236-.467-2.806.701-4.388 3.332-6.063 3.8-2.417 7.6-4.914 10.982-7.802 2.788-2.382 5.368-4.972 7.949-7.564 1.198-1.202 2.396-2.406 3.615-3.588.119-.115.225-.237.327-.353.507-.579.873-.997 1.855.432.999 1.456 2.512 2.605 4.024 3.753.649.494 1.3.988 1.909 1.506l.019.017c.998.848 1.709 1.453.456 2.917ZM354.775 384.772l.433-.088c.877.224 1.841.585 2.049 1.178 1.845 5.245 3.595 10.52 5.346 15.793l.586 1.763c.209.633.422 1.265.634 1.897.81 2.408 1.619 4.816 2.295 7.256.47 1.701.323 3.139-1.707 4.401-2.122 1.322-4.069 2.886-6.017 4.451a115.346 115.346 0 0 1-3.216 2.52c-1.292.965-1.692-.171-1.941-.876a6.555 6.555 0 0 0-.081-.224c-1.171-2.983-2.194-6.018-3.197-9.055a24.064 24.064 0 0 0-.631-1.623c-.631-1.521-1.29-3.109-.742-3.717 1.157-1.284 2.929-2.09 4.699-2.893a39.1 39.1 0 0 0 2.078-.992c.155-.081.326-.14.497-.198.213-.073.426-.146.607-.264.444-.292.865-.617 1.284-.942.174-.135.348-.27.524-.401-.302-.113-.627-.279-.953-.443-.71-.361-1.42-.721-1.88-.536-2.232.898-4.45 2.005-6.33 3.429-1.537 1.162-2.216 1.048-2.848-.556l-.252-.642a1427.66 1427.66 0 0 1-5.387-13.835c-.07-.184.349-.627.64-.818 4.065-2.655 8.788-3.621 13.51-4.585Zm8.363 9.323c-.077-.471-.156-.949-.565-1.069-.41-1.379-.846-2.569-1.257-3.695-.264-.724-.52-1.421-.752-2.125-.804-2.432-.104-3.37 2.598-3.231 2.715.14 5.427.352 8.138.565 1.682.133 3.366.265 5.049.379 1.585.109 1.102.823.607 1.557l-.006.008c-2.574 3.813-6.648 5.754-10.707 7.69-.499.238-.998.475-1.493.717-1.373.667-1.491-.058-1.612-.796Zm-29.267 3.648c-1.219-1.487-1.817-2.729-.236-4.226 1.771-1.161 3.257-2.113 4.805-2.967.245-.136.589-.114.933-.093.159.009.317.019.466.013-.034.106-.084.214-.133.322-.106.234-.213.467-.176.68.08.465.149.935.217 1.406.206 1.424.415 2.852.933 4.171.629 1.599.109 2.084-1.398 2.091-.307.002-.616.014-.925.027-1.612.066-3.211.132-4.486-1.424Z"/><path d="M413.952 548.278c.542-.018 1.086-.037 1.633-.054 2.111-.205 4.091-.332 6.072-.356 2.349-.03 4.274-.823 5.077-2.927 2.37-6.2 4.631-12.438 6.834-18.693.097-.276.277-.555.46-.839.52-.808 1.066-1.657-.186-2.581-.244.312-.513.616-.78.921-.585.664-1.171 1.329-1.517 2.087-1.523 3.334-3.003 6.701-4.192 10.147-.637 1.849-2.009 2.376-3.649 2.514-3.335.279-6.691.559-10.032.489-11.162-.231-22.327-.52-33.479-.994-4.358-.186-7.392-3.75-6.462-7.731.267-1.142 1.674-2.309 2.877-2.88.375-.179 1.197.428 1.977 1.003.286.212.568.419.819.583.275.177.525.388.775.599.255.217.511.432.793.613.883.564 1.534.463 1.592-.683.084-1.66-3.028-4.642-4.842-4.71-4.988-.185-6.629 2.949-7.222 6.68-.594 3.745 3.973 8.658 9.339 9.018 3.253.219 6.512.407 9.773.488 8.252.204 16.505.408 24.759.472 2.137.016 4.275-.104 6.413-.226l.006-.001.031-.001c1.371-.079 2.742-.156 4.114-.197.282-.009.572.197.862.401.135.096.269.191.403.265-.357.385-.691.84-1.027 1.294-.743 1.008-1.487 2.014-2.457 2.269-2.198.576-4.584.592-6.939.608-.492.004-.984.007-1.473.016-4.556.078-9.12.148-13.67-.014-.653-.023-1.308-.044-1.963-.066-4.215-.136-8.455-.273-12.572-.968-5.679-.96-11.301-2.215-16.921-3.47l-.008-.002-.009-.001-.007-.003c-2.044-.456-4.086-.912-6.131-1.354l-.289-.062c-2.04-.435-4.333-.925-4.791-3.071-.361-1.688.934-2.699 2.207-3.693.425-.331.845-.66 1.203-1.011.021-.021.069-.014.12-.008.048.008.1.014.134-.001l1.761-.784.003-.001.002-.001c1.901-.843 3.803-1.687 5.673-2.588.379-.183.671-.527.962-.871.133-.159.267-.316.41-.459-.19-.073-.391-.179-.592-.283-.434-.227-.867-.454-1.188-.357l-.368.111c-4.124 1.242-8.317 2.504-11.196 5.761-3.05 3.448-2.093 7.543 2.024 8.762 2.951.874 5.944 1.629 8.937 2.384l.005.002h.003l.001.002c2.044.515 4.089 1.032 6.121 1.586 7.467 2.036 15.127 2.311 22.786 2.585 2.401.087 4.803.173 7.2.314 3.227.189 6.475.079 9.801-.033ZM346.132 432.9a304.964 304.964 0 0 1-3.939 3.444c-2.968 2.565-5.89 5.09-8.543 7.842-3.1 3.212-5.72 6.876-8.162 10.564-.727 1.096-.905 2.518-1.079 3.921-.061.488-.121.975-.205 1.443-.045.251.15.539.344.827.09.134.179.266.245.395.1-.11.212-.216.324-.321.246-.23.49-.461.603-.737.22-.537.392-1.098.563-1.659.303-.99.605-1.976 1.168-2.812.314-.465.626-.934.937-1.405 1.668-2.517 3.362-5.072 5.59-7.078 6.031-5.429 12.269-10.659 18.505-15.889l.015-.013.01-.007.003-.004.018-.014c1.753-1.47 3.505-2.94 5.253-4.414.34-.286.822-.425 1.303-.563a9.04 9.04 0 0 0 .658-.209c-.056.246-.083.519-.11.791-.06.59-.119 1.181-.466 1.504-2.746 2.565-5.542 5.103-8.513 7.437-6.233 4.898-12.241 9.94-17.087 16.152-2.604 3.342-4.482 6.883-5.895 10.744-.941 2.565-.018 4.864.884 7.109l.002.008.002.005.124.311c.615 1.54 4.452 2.063 7.046 1.281 6.652-2.005 12.327-5.65 17.371-9.949 6.646-5.667 13.074-11.603 19.091-17.846 2.848-2.955 5.168-6.36 7.482-9.755.677-.994 1.353-1.987 2.043-2.966.379-.541.485-1.24.594-1.947.071-.47.144-.945.297-1.379.104-.292.415-.52.726-.749.141-.105.284-.209.405-.319.099.135.217.267.336.398.257.286.514.571.565.884.444 2.779-.481 5.245-2.24 7.455-4.888 6.143-9.908 12.161-15.948 17.408-2.001 1.736-3.855 3.615-5.71 5.496-1.368 1.387-2.738 2.774-4.165 4.104-6.144 5.725-13.626 9.428-21.83 11.801-3.838 1.109-7.521-1.213-9.036-4.912-.357-.872-.839-1.699-1.321-2.526-.452-.775-.905-1.551-1.254-2.363-2.456-5.715-.673-10.565 3.02-15.438 5.886-7.769 13.561-13.734 21.265-19.721l.305-.236c.475-.369 1.163-.574 1.786-.677.388-.064 1.026.096 1.208.36.164.239.001.919-.266 1.124-.867.669-1.768 1.3-2.708 1.959l-.001.001-.002.001c-.524.368-1.062.744-1.611 1.139Z"/><path fill-rule="evenodd" clip-rule="evenodd" d="M430.441 523.399a785.056 785.056 0 0 0 4.217-14.313c1.718-3.909 2.403-7.766 2.703-11.733.015-.207.066-.424.114-.634.15-.647.285-1.231-.653-1.257-.703-.021-1.807 1.025-2.083 1.793-.226.628-.271 1.316-.315 2.001-.049.747-.097 1.491-.379 2.153-.454 1.067-1.471 2.223-2.561 2.704-3.871 1.704-7.701 1.018-11.254-.956-.663-.369-1.384-1.453-1.272-2.081.187-1.043.502-2.065.817-3.088.317-1.029.634-2.059.819-3.108.092-.518-.248-1.103-.586-1.686-.154-.267-.31-.533-.423-.794-.184.185-.399.362-.612.538-.47.386-.941.774-1.093 1.25-.306.954-.493 1.94-.682 2.927-.16.837-.319 1.673-.55 2.492-.365 1.287-.756 2.569-1.147 3.852v.001c-1.416 4.641-2.83 9.279-2.974 14.185-.053 1.827-2.955 3.901-4.994 3.642-.377-.048-1.008-1.301-.874-1.435.499-.498 1.073-.929 1.648-1.362.403-.302.806-.606 1.185-.932.411-.355.76-.859.892-1.352.04-.147-.719-.638-1.163-.716-2.741-.481-6.804 3.692-6.046 6.184.432 1.418.907 2.826 1.38 4.233l.116.339c.15.446.322.885.494 1.324.079.2.158.4.233.602.145-.191.3-.377.455-.562.34-.405.678-.81.897-1.263 1.159-2.403 5.481-3.946 7.302-2.282 3.339 3.053 7.43 2.994 11.442 2.565 1.888-.203 4.249-.942 4.947-3.231Zm-15.619-3.754c.043-.252.088-.504.105-.744a164.675 164.675 0 0 0 2.35-11.186c.326-1.859 1.12-2.163 3.05-1.52 3.351 1.115 6.784 2.231 10.459.971.357-.123.82.021 1.282.165.214.067.428.134.632.174-.038.161-.073.323-.108.486-.077.348-.154.698-.25 1.042-.316 1.117-.64 2.233-.966 3.347-.681 2.336-1.361 4.672-1.956 7.026-.742 2.933-2.844 4.935-6.007 5.383-2.582.367-7.759-1.702-8.592-3.603-.194-.44-.096-.99.001-1.541Z"/><path d="m458.554 427.572.002-.002.002-.004c1.021-2.24 2.03-4.453 3.084-6.647.301-.624.968-1.112 1.602-1.578.132-.097.262-.192.387-.287.207-.158.884-.121 1.016.048.227.293.391.844.244 1.142-2.682 5.411-5.372 10.818-8.158 16.184-.918 1.77-2.55 2.682-4.745 2.482-.897-.081-1.795-.159-2.693-.236l-.004-.001-.013-.001c-2.628-.227-5.257-.454-7.869-.786-1.078-.137-2.189-.664-3.08-1.273-.449-.308-.738-.821-1.026-1.334-.13-.228-.259-.457-.401-.668.302 0 .623-.033.945-.065.697-.071 1.392-.142 1.898.114 4.165 2.113 8.68 2.008 13.101 1.64.765-.063 1.445-1.007 2.163-2.002.35-.485.708-.983 1.09-1.398a470.003 470.003 0 0 0 2.455-5.328ZM324.418 343.206c.614 3.358 1.233 6.714 1.982 10.194.292 1.104.529 2.199.762 3.279.364 1.688.722 3.343 1.267 4.942 1.176 3.447 2.687 6.802 4.216 10.133.175.381.732.609 1.29.838.257.105.515.211.734.332.002-.238.026-.482.051-.726.051-.542.105-1.083-.081-1.54-.232-.576-.575-1.122-.915-1.665-.452-.719-.901-1.434-1.089-2.208a1133.656 1133.656 0 0 1-3.12-13.327c-.912-3.96-1.823-7.921-2.77-11.873-.138-.573-.605-1.078-1.072-1.584-.217-.234-.434-.468-.617-.71-.089.227-.185.454-.283.68-.229.535-.459 1.068-.573 1.623-.077.367.021.767.118 1.165.036.15.073.3.1.447ZM441.498 415.353c-1.045-.403-1.828-.805-2.61-1.207.237-.08.476-.187.715-.294.519-.233 1.037-.465 1.523-.416 1.554.156 3.102.37 4.65.586l.001.001c2.34.324 4.676.65 7.026.768 2.669.135 5.347.083 8.026.031h.011c1.755-.035 3.511-.07 5.264-.051.622.006 1.242.246 1.861.485.286.11.571.221.857.308-.205.133-.409.302-.613.47-.441.364-.882.727-1.33.735l-1.084.021h-.005c-4.908.094-9.823.189-14.721-.03-2.047-.091-4.081-.457-6.19-.838h-.002c-1.102-.199-2.225-.4-3.379-.569ZM393.959 321.234c-.453-.033-.917-.065-1.394-.105-.244 0-.457.002-.648.003-.358.002-.643.004-.927-.004-1.422-.04-2.843-.081-4.265-.123h-.006c-4.277-.124-8.556-.248-12.834-.342-.535-.012-1.139.215-1.602.49-.347.206-.631.502-.914.798-.125.129-.248.258-.377.38.184.081.368.182.553.283.395.219.791.438 1.193.447 8.325.21 16.651.369 24.977.499.382.005.768-.149 1.153-.304.179-.071.358-.142.536-.198-.134-.151-.261-.334-.389-.517-.279-.398-.557-.797-.906-.861-1.324-.244-2.679-.34-4.15-.446ZM418.671 465.972l.002-.014c.578-4.259 1.136-8.373 1.851-12.464.096-.551.642-1.033 1.187-1.515.253-.223.505-.447.713-.676.07.258.172.522.275.787.222.569.442 1.139.332 1.645-1.71 7.841-2.764 15.732-2.627 23.75.007.376-.297.757-.6 1.138a5.679 5.679 0 0 0-.392.53 7.834 7.834 0 0 0-.59-.684c-.459-.496-.919-.992-.923-1.492-.014-1.953.125-3.906.269-5.944.063-.875.126-1.765.178-2.676l.325-2.385ZM475.734 391.958c-.126.624-.255 1.265-.429 1.925-.069.402-.076.776-.083 1.132-.006.327-.012.64-.065.944-.224 1.27-.466 2.538-.709 3.804v.003c-.486 2.534-.971 5.068-1.3 7.62-.026.211-.082.444-.138.688-.25 1.065-.546 2.327 1.202 2.702.215.046 1.179-2.102 1.449-3.3.785-3.467 1.423-6.965 2.059-10.46.431-2.372.835-4.756 1.071-7.149.032-.319-.325-.671-.682-1.022-.165-.163-.33-.325-.456-.484a6.218 6.218 0 0 1-.498.394c-.383.282-.766.565-.879.922-.232.737-.384 1.496-.542 2.281ZM366.125 422.592c4.426-2.365 8.998-2.337 13.572-1.278.841.195 1.573.801 2.305 1.408.336.279.672.558 1.018.797-.387.019-.781.063-1.175.108-.854.096-1.71.192-2.5.024-5.359-1.146-10.184-.131-14.67 2.718-.4.254-.88.401-1.361.547-.222.069-.444.136-.658.214a10.113 10.113 0 0 0-.284-.593c-.228-.451-.457-.904-.345-.998.86-.711 1.789-1.349 2.767-2.022l.002-.001.002-.001.001-.001.001-.001c.433-.298.875-.601 1.325-.921ZM427.245 177.348l-.002.001-.346.12c-1.189.392-2.357.745-3.506 1.093-1.369.413-2.713.82-4.036 1.275-.532.182-.983.569-1.433.957-.207.177-.413.355-.628.513.247.1.508.242.771.386.566.309 1.132.618 1.542.491 3.903-1.215 7.743-2.607 11.581-3.998l.257-.093c.286-.104.608-.89.548-.935l-.131-.101h-.001c-.414-.315-.919-.701-1.318-.641-1.081.16-2.126.524-3.278.926l-.02.006ZM399.01 525.65c-.18-.246-.358-.482-.532-.712-.55-.729-1.057-1.398-1.407-2.132-.305-.64-.553-1.879-.246-2.081.677-.445 1.925-.789 2.578-.489 1.903.876 3.623 7.756 2.409 9.321-.185.239-1.697.054-1.801-.21-.267-.672-.431-1.381-.602-2.122a24.764 24.764 0 0 0-.399-1.575ZM390.426 525.761c.36.615.732 1.256 1.087 1.972.042.218.077.425.11.623.105.629.192 1.159.451 1.601.262.446.654.824 1.047 1.203.171.164.343.329.503.5.164-.177.36-.348.554-.519.427-.374.853-.748.961-1.188.469-1.941-1.468-6.523-3.653-7.8-.36-.21-.934-.102-1.508.007-.264.049-.526.099-.77.117.028.192.042.39.056.588.032.436.063.872.246 1.242.276.555.591 1.094.916 1.654ZM387.829 528.717c-.327 1.309-.656 2.371-.984 3.435-.183-.291-.36-.585-.535-.88-.394-.656-.786-1.312-1.248-1.924l-.335-.443c-.937-1.246-1.884-2.503-3.009-3.587l-.031-.03c-.84-.81-.961-.925.133-1.527 2.077-1.143 3.367.036 4.393 1.423.584.788.936 1.726 1.326 2.769l.001.001c.094.249.188.502.289.763ZM438.805 422.622l.063-.393a348.546 348.546 0 0 0-.249-3.909v-.004c-1.59.29-1.744 1.316-1.917 2.64-.173 1.319-.48 2.622-.789 3.926-.242 1.024-.483 2.049-.66 3.083-.053.307.767.908 1.292 1.075.313.101 1.154-.316 1.22-.607.42-1.853.715-3.733 1.04-5.811ZM421.109 155.629a7.479 7.479 0 0 0-.478-.35c-.255-.177-.47-.326-.614-.521-.291-.392-.529-.818-.766-1.244-.101-.178-.2-.356-.303-.532.221-.019.469-.068.718-.115.538-.107 1.078-.213 1.333-.009 1.954 1.56 3.828 3.225 5.544 5.01.219.228.039.79-.14 1.353a6.753 6.753 0 0 0-.21.745 15.77 15.77 0 0 0-.473-.295c-.348-.212-.697-.425-.994-.689-.843-.747-1.663-1.519-2.53-2.334-.352-.332-.713-.672-1.087-1.019ZM416.016 158.92c-.311.392-.632.796-.958 1.128a11.18 11.18 0 0 1-.217.765c-.362 1.169-.73 2.359.944 2.717 2.19.467 2.681-1.335 3.085-2.898a.311.311 0 0 0 .001-.114.27.27 0 0 1 .006-.127c.532-1.318.575-2.851-1.087-3-.522-.047-1.127.715-1.774 1.529ZM432.564 172.189l-.048.048c-.948.946-1.811 1.806-3.173.855-.59-.412-1.547-1.197-1.428-1.507.372-.962 1.032-1.95 1.878-2.576.418-.309 1.845-.092 2.191.331.474.578.564 1.429.654 2.299.016.143.03.287.048.43a6.96 6.96 0 0 0-.122.12ZM449.39 179.47c-.439-.545-.877-1.091-1.579-1.636-.876.721-1.489 1.441-2.103 2.162.15.081.311.193.471.304.355.245.71.49.956.417.576-.171 1.097-.508 1.617-.847.211-.137.423-.274.638-.4Z"/></g><g fill="#FFB61D"><path d="M417.552 80.472c1.427-1.318 2.748-2.494 4-3.729.283-.28.323-.768.475-1.16-.425.157-.969.209-1.256.486-3.084 2.972-6.889 4.751-11.12 5.843-1.816.469-3.629.956-5.47 1.328-.388.077-.888-.32-1.336-.497.23-.345.375-.872.705-1.005 2.089-.836 4.156-1.81 6.346-2.315 4.144-.958 7.113-3.436 10.437-5.688 4.224-2.863 4.944-6.799 5.449-10.86.434-3.482-1.53-6.497-3.617-9.3-3.957-5.316-9.367-8.19-16.394-8.884-8.138-.805-14.437 2.043-19.813 7.354-.586.579-1.568.817-2.366 1.215.224-1.005.1-2.28.728-2.973 6.582-7.247 18.37-10.397 29.091-6.134 8.201 3.26 13.459 8.978 14.871 16.761 1.108 6.107-.793 12.35-5.259 17.353-3.75 4.203-8.305 7.41-14.4 8.461-7.386 1.272-14.171.25-20.332-3.779-5.768-3.772-9.165-8.883-9.95-15.407-.215-1.798-.49-3.605-.459-5.404.009-.601.884-1.19 1.363-1.784.401.585 1.077 1.14 1.159 1.762.653 4.867 1.825 9.613 4.217 13.999 2.713 4.97 7.879 7.213 13.215 8.498 5.405 1.302 10.965.565 16.065-1.846 1.248-.588 2.349-1.442 3.651-2.295Z"/><path d="M394.577 68.767c.002-.733.135-1.345.27-1.957.486.21 1.062.328 1.445.644 2.613 2.148 2.32 2.013 4.002-.686 1.8-2.889 1.316-5.252-.221-8.045-1.64-2.98.176-4.224 2.811-5.172.229-.082.616-.126.765-.008 2.062 1.623 3.827-3.496 5.1-.591.981 2.24 3.025 3.19 4.141 4.996.303.492.018 1.294.002 1.953-.61-.099-1.36-.023-1.81-.325-4.012-2.694-4.024-2.72-5.323 1.593-.147.49.093 1.192.391 1.669 1.428 2.286 4.017 4.208 1.967 7.368-1.711 2.64-6.842 4.037-9.497 2.231-1.457-.99-2.617-2.353-4.043-3.67Zm8.054-1.828c-.303.767-.783 1.522-.85 2.307-.046.542.477 1.124.746 1.69 1.14-.565 2.593-.907 3.307-1.77.475-.576.03-1.931-.263-2.867-.182-.586-.849-1.042-1.298-1.556-.46.651-.919 1.301-1.642 2.196Zm1.848-9.023.098-1.861c-.787.34-1.804.52-2.263 1.087-.242.298.492 1.27.786 1.938.372-.307.744-.613 1.379-1.164ZM397.481 82.18c-.054-.518.024-.916.103-1.313l1.35.826c-.44.204-.88.406-1.453.487ZM391.143 79.012c.572.004 1.012.13 1.452.257l-.658.96c-.309-.365-.618-.73-.794-1.217Z"/></g><g fill="#FFB61D"><path d="M114.039 195.795c-3.988-2.64-5.662-6.418-6.958-10.378-.173-.525.232-1.212.368-1.825.55.271 1.281.417 1.614.835 1.026 1.285 1.709 2.836 2.867 3.994 3.968 3.971 9.12 4.904 14.356 3.24 5.058-1.609 8.247-5.459 8.916-10.379.644-4.751-3.407-12.405-10.683-13.534-4.29-.665-7.582.491-10.992 2.363-.597.327-1.548.103-2.335.133.353-.628.536-1.465 1.088-1.85 8.619-6 18.095-2.582 23.351 4.149 1.758 2.252 2.366 5.508 2.739 8.39.613 4.753-.072 9.251-4.036 13.06-4.209 4.046-13.253 5.657-18.386 2.667-.544-.318-1.181-.498-1.909-.865Zm7.264.367c5.51.218 10.134-1.311 13.149-5.838.568-.853.831-1.88 1.234-2.827-.735.603-1.553 1.14-2.193 1.82-4.979 5.285-11.114 5.958-17.958 3.921-.422-.126-.857-.213-1.286-.318.268.43.427 1.095.822 1.251 1.866.74 3.795 1.34 6.232 1.991Z"/><path d="M123.811 173.606c.748.425 1.364.728 1.98 1.029-.464.186-.915.411-1.394.549-1.264.36-1.847 2.803-.867 3.99.527.636 1.115 1.429 1.863 1.678 2.655.887 1.566 2.965 1.324 4.277-.396 2.147-5.965 4.1-8.103 3.167-.296-.13-.728-.619-.704-.647.383-.439.761-.951 1.278-1.208 3.015-1.499 3.213-4.118.41-5.994-2.292-1.536-2.342-3.329-.339-5.378.621-.636.827-1.612 1.256-2.417.336-.629.724-1.234 1.088-1.849.516.556 1.059 1.095 1.536 1.678.24.293.364.666.672 1.125Zm-.132 9.145.028 2.465c.184-.025.529-.052.528-.074a50.874 50.874 0 0 0-.117-2.465c-.003-.06-.114-.113-.439.074ZM107.702 179.46c-.572-.339-1.457-.882-1.378-1.246a39.13 39.13 0 0 1 1.745-5.841c.176-.453 1.148-.641 1.755-.951.191.712.718 1.525.511 2.117-.691 1.975-1.647 3.872-2.633 5.921Z"/></g><g fill="#FFB61D"><path d="M538.154 157.032c1.322-3.475 2.57-6.817.728-10.337-.207-.395-.14-.966-.043-1.428.092-.446.386-.855.591-1.281.38.296.91.522 1.114.899 2.121 3.918 2.191 7.975.415 11.958-3.59 8.052-10.652 11.19-19.241 9.929-5.929-.871-10.462-4.281-12.462-9.875-.162-.45.023-1.006.048-1.512.548.222 1.289.308 1.613.692 1.382 1.636 2.374 3.628 3.991 5.006 7.476 6.366 18.657 4.239 23.246-4.051Z"/><path d="M525.213 152.639c-.938-1.028-1.793-1.903-2.529-2.855-.368-.474-.903-1.285-.709-1.609.996-1.657 2.458-3.104 2.337-5.189.608.09 1.665.046 1.751.291.502 1.441 1.029 2.944 1.062 4.434.035 1.603.47 2.575 2.11 3.337 4.071 1.892 4.28 4.937.804 7.701-.519.412-.472 1.409-.743 2.118-.214.562-.516 1.098-.779 1.645-.547-.34-1.147-.629-1.634-1.032-1.824-1.511-1.284-3.515-1.289-5.419-.004-1.1-.161-2.199-.381-3.422Zm4.093.854-1.581.491 1.993 3.517c.012-1.198.026-2.396.027-3.595 0-.056-.114-.113-.439-.413ZM517.027 139.472c-3.87 2.308-6.162 5.358-6.748 9.456-.073.513-.283 1.026-.534 1.492-.176.326-.529.568-.805.849-.254-.389-.671-.757-.735-1.171-.509-3.374.956-6.202 3.119-8.748 2.674-3.147 6.245-5.088 10.394-6.126.572-.144 1.286-.173 1.82.017.741.265 1.373.788 2.051 1.201-.594.238-1.179.503-1.787.709-2.21.743-4.429 1.467-6.775 2.321ZM528.382 137.031c.815-.366 1.993-1.062 2.665-.77 2.074.905 3.988 2.142 5.88 3.361.365.236.351.976.511 1.483-.6.062-1.355.37-1.777.145-2.426-1.296-4.773-2.718-7.279-4.219Z"/></g><g fill="#FFB61D"><path d="M348.674 174.214c-1.056-2.114-2.275-3.926-3.098-5.879-.392-.927-.03-2.126-.009-3.201.684.832 1.457 1.614 2.034 2.506 1.725 2.661 3.061 5.592 5.117 8.005 4.258 4.996 10.333 5.6 16.649 3.122 7.603-2.982 11.752-8.981 12.782-15.816.819-5.438-1.014-11.34-6.658-15.117-.475-.318-.471-1.247-.689-1.894.644-.004 1.377-.199 1.917.018 3.419 1.371 4.854 4.362 6.222 7.192 1.798 3.717 2.523 7.919 1.453 11.746-.928 3.326-3.444 6.302-5.414 9.347-3.309 5.115-8.841 7.287-14.738 8.058-2.751.361-6.091-.819-8.651-2.145-2.632-1.364-4.637-3.757-6.917-5.942Z"/><path d="M372.97 149.827c-.69 2.195-3.17 4.133-.027 6.134.151.096.041.873-.199 1.067-.229.186-.978.184-1.173-.011-1.589-1.594-1.85-.074-2.285.823-.682 1.41-.567 2.567.385 4.087 1.119 1.79 2.232 4.127.114 6.174-.682.659-1.53 1.601-2.343 1.637-2.438.11-4.004.971-4.94 3.088-.266.603-1.26.931-1.92 1.385-.097-.799-.209-1.595-.283-2.397-.091-.973.002-1.987-.271-2.911-.206-.7-1.047-1.241-1.257-1.942-.152-.505.096-1.318.497-1.685.259-.237 1.309-.113 1.676.19 1.956 1.618 1.961 1.088 2.746-1.058.802-2.193.459-3.219-1.175-4.514-1.688-1.34-1.555-3.213-.541-4.645.778-1.1 2.446-2.397 3.661-2.35 2.621.102 3.745-.976 4.728-2.894 1.075-2.095 1.419-2.081 2.607-.178Zm-7.13 5.364c-.617.714-1.506 1.361-1.739 2.168-.126.436.875 1.148 1.368 1.734.464-.64.913-1.29 1.4-1.914.201-.257.6-.42.711-.694.428-1.053-.05-1.468-1.74-1.294Zm1.848 9.511-.174-1.138c-.421.171-.985.242-1.227.538-.323.393-.458.949-.564 1.455-.136.652-.164 1.324-.239 1.987.615-.35 1.315-.62 1.813-1.077.296-.273.271-.842.391-1.765ZM348.279 151.9c4.242-4.47 9.967-6.099 15.579-7.9.547-.177 1.244-.124 1.824.005.527.118.988.484 1.478.741-.43.393-.783.953-1.302 1.154-3.88 1.512-7.81 2.915-11.691 4.427-3.99 1.553-5.548 4.761-6.59 8.351-.229.787-.989 1.442-1.506 2.158-.297-.887-1.056-1.912-.802-2.635.743-2.123 1.889-4.127 3.01-6.301ZM357.521 184.334c-2.85-.316-4.889-1.715-6.409-3.774-.181-.244.068-.757.117-1.146.314.054.696.022.93.177a244.353 244.353 0 0 1 5.793 3.962c.051.037-.193.431-.431.781Z"/></g></svg>